v -0.191000 -0.000000 -0.036000
v -0.191000 -0.018000 -0.036000
v 0.191000 -0.018000 -0.036000
v 0.191000 0.000000 -0.036000
v -0.191000 0.000000 0.036000
v -0.191000 -0.018000 0.036000
v -0.191000 -0.018000 -0.036000
v -0.191000 -0.000000 -0.036000
v 0.191000 0.000000 -0.036000
v 0.191000 -0.018000 -0.036000
v 0.191000 -0.018000 0.036000
v 0.191000 0.000000 0.036000
v -0.191000 -0.000000 -0.036000
v 0.191000 0.000000 -0.036000
v 0.191000 0.000000 0.036000
v -0.191000 0.000000 0.036000
v -0.014000 0.000000 0.000000
v -0.013983 0.000000 -0.000698
v -0.013930 0.000000 -0.001394
v -0.013844 0.000000 -0.002087
v -0.013722 0.000000 -0.002774
v -0.013567 0.000000 -0.003455
v -0.013378 0.000000 -0.004127
v -0.013156 0.000000 -0.004788
v -0.012901 0.000000 -0.005438
v -0.012614 0.000000 -0.006074
v -0.012295 0.000000 -0.006696
v -0.011946 0.000000 -0.007300
v -0.011567 0.000000 -0.007886
v -0.011160 0.000000 -0.008453
v -0.010725 0.000000 -0.008999
v -0.010263 0.000000 -0.009522
v -0.009775 0.000000 -0.010022
v -0.009264 0.000000 -0.010497
v -0.008729 0.000000 -0.010946
v -0.008172 0.000000 -0.011367
v -0.007596 0.000000 -0.011760
v -0.007000 0.000000 -0.012124
v -0.006387 0.000000 -0.012458
v -0.005758 0.000000 -0.012761
v -0.005115 0.000000 -0.013032
v -0.004459 0.000000 -0.013271
v -0.003792 0.000000 -0.013477
v -0.003115 0.000000 -0.013649
v -0.002431 0.000000 -0.013787
v -0.001741 0.000000 -0.013891
v -0.001046 0.000000 -0.013961
v -0.000349 0.000000 -0.013996
v 0.000349 0.000000 -0.013996
v 0.001046 0.000000 -0.013961
v 0.001741 0.000000 -0.013891
v 0.002431 0.000000 -0.013787
v 0.003115 0.000000 -0.013649
v 0.003792 0.000000 -0.013477
v 0.004459 0.000000 -0.013271
v 0.005115 0.000000 -0.013032
v 0.005758 0.000000 -0.012761
v 0.006387 0.000000 -0.012458
v 0.007000 0.000000 -0.012124
v 0.007596 0.000000 -0.011760
v 0.008172 0.000000 -0.011367
v 0.008729 0.000000 -0.010946
v 0.009264 0.000000 -0.010497
v 0.009775 0.000000 -0.010022
v 0.010263 0.000000 -0.009522
v 0.010725 0.000000 -0.008999
v 0.011160 0.000000 -0.008453
v 0.011567 0.000000 -0.007886
v 0.011946 0.000000 -0.007300
v 0.012295 0.000000 -0.006696
v 0.012614 0.000000 -0.006074
v 0.012901 0.000000 -0.005438
v 0.013156 0.000000 -0.004788
v 0.013378 0.000000 -0.004127
v 0.013567 0.000000 -0.003455
v 0.013722 0.000000 -0.002774
v 0.013844 0.000000 -0.002087
v 0.013930 0.000000 -0.001394
v 0.013983 0.000000 -0.000698
v 0.014000 0.000000 0.000000
v 0.013983 0.000000 0.000698
v 0.013930 0.000000 0.001394
v 0.013844 0.000000 0.002087
v 0.013722 0.000000 0.002774
v 0.013567 0.000000 0.003455
v 0.013378 0.000000 0.004127
v 0.013156 0.000000 0.004788
v 0.012901 0.000000 0.005438
v 0.012614 0.000000 0.006074
v 0.012295 0.000000 0.006696
v 0.011946 0.000000 0.007300
v 0.011567 0.000000 0.007886
v 0.011160 0.000000 0.008453
v 0.010725 0.000000 0.008999
v 0.010263 0.000000 0.009522
v 0.009775 0.000000 0.010022
v 0.009264 0.000000 0.010497
v 0.008729 0.000000 0.010946
v 0.008172 0.000000 0.011367
v 0.007596 0.000000 0.011760
v 0.007000 0.000000 0.012124
v 0.006387 0.000000 0.012458
v 0.005758 0.000000 0.012761
v 0.005115 0.000000 0.013032
v 0.004459 0.000000 0.013271
v 0.003792 0.000000 0.013477
v 0.003115 0.000000 0.013649
v 0.002431 0.000000 0.013787
v 0.001741 0.000000 0.013891
v 0.001046 0.000000 0.013961
v 0.000349 0.000000 0.013996
v -0.000349 0.000000 0.013996
v -0.001046 0.000000 0.013961
v -0.001741 0.000000 0.013891
v -0.002431 0.000000 0.013787
v -0.003115 0.000000 0.013649
v -0.003792 0.000000 0.013477
v -0.004459 0.000000 0.013271
v -0.005115 0.000000 0.013032
v -0.005758 0.000000 0.012761
v -0.006387 0.000000 0.012458
v -0.007000 0.000000 0.012124
v -0.007596 0.000000 0.011760
v -0.008172 0.000000 0.011367
v -0.008729 0.000000 0.010946
v -0.009264 0.000000 0.010497
v -0.009775 0.000000 0.010022
v -0.010263 0.000000 0.009522
v -0.010725 0.000000 0.008999
v -0.011160 0.000000 0.008453
v -0.011567 0.000000 0.007886
v -0.011946 0.000000 0.007300
v -0.012295 0.000000 0.006696
v -0.012614 0.000000 0.006074
v -0.012901 0.000000 0.005438
v -0.013156 0.000000 0.004788
v -0.013378 0.000000 0.004127
v -0.013567 0.000000 0.003455
v -0.013722 0.000000 0.002774
v -0.013844 0.000000 0.002087
v -0.013930 0.000000 0.001394
v -0.013983 0.000000 0.000698
v -0.191000 -0.018000 -0.036000
v 0.191000 -0.018000 -0.036000
v 0.191000 -0.018000 0.036000
v -0.191000 -0.018000 0.036000
v -0.014000 -0.018000 0.000000
v -0.013983 -0.018000 0.000698
v -0.013930 -0.018000 0.001394
v -0.013844 -0.018000 0.002087
v -0.013722 -0.018000 0.002774
v -0.013567 -0.018000 0.003455
v -0.013378 -0.018000 0.004127
v -0.013156 -0.018000 0.004788
v -0.012901 -0.018000 0.005438
v -0.012614 -0.018000 0.006074
v -0.012295 -0.018000 0.006696
v -0.011946 -0.018000 0.007300
v -0.011567 -0.018000 0.007886
v -0.011160 -0.018000 0.008453
v -0.010725 -0.018000 0.008999
v -0.010263 -0.018000 0.009522
v -0.009775 -0.018000 0.010022
v -0.009264 -0.018000 0.010497
v -0.008729 -0.018000 0.010946
v -0.008172 -0.018000 0.011367
v -0.007596 -0.018000 0.011760
v -0.007000 -0.018000 0.012124
v -0.006387 -0.018000 0.012458
v -0.005758 -0.018000 0.012761
v -0.005115 -0.018000 0.013032
v -0.004459 -0.018000 0.013271
v -0.003792 -0.018000 0.013477
v -0.003115 -0.018000 0.013649
v -0.002431 -0.018000 0.013787
v -0.001741 -0.018000 0.013891
v -0.001046 -0.018000 0.013961
v -0.000349 -0.018000 0.013996
v 0.000349 -0.018000 0.013996
v 0.001046 -0.018000 0.013961
v 0.001741 -0.018000 0.013891
v 0.002431 -0.018000 0.013787
v 0.003115 -0.018000 0.013649
v 0.003792 -0.018000 0.013477
v 0.004459 -0.018000 0.013271
v 0.005115 -0.018000 0.013032
v 0.005758 -0.018000 0.012761
v 0.006387 -0.018000 0.012458
v 0.007000 -0.018000 0.012124
v 0.007596 -0.018000 0.011760
v 0.008172 -0.018000 0.011367
v 0.008729 -0.018000 0.010946
v 0.009264 -0.018000 0.010497
v 0.009775 -0.018000 0.010022
v 0.010263 -0.018000 0.009522
v 0.010725 -0.018000 0.008999
v 0.011160 -0.018000 0.008453
v 0.011567 -0.018000 0.007886
v 0.011946 -0.018000 0.007300
v 0.012295 -0.018000 0.006696
v 0.012614 -0.018000 0.006074
v 0.012901 -0.018000 0.005438
v 0.013156 -0.018000 0.004788
v 0.013378 -0.018000 0.004127
v 0.013567 -0.018000 0.003455
v 0.013722 -0.018000 0.002774
v 0.013844 -0.018000 0.002087
v 0.013930 -0.018000 0.001394
v 0.013983 -0.018000 0.000698
v 0.014000 -0.018000 -0.000000
v 0.013983 -0.018000 -0.000698
v 0.013930 -0.018000 -0.001394
v 0.013844 -0.018000 -0.002087
v 0.013722 -0.018000 -0.002774
v 0.013567 -0.018000 -0.003455
v 0.013378 -0.018000 -0.004127
v 0.013156 -0.018000 -0.004788
v 0.012901 -0.018000 -0.005438
v 0.012614 -0.018000 -0.006074
v 0.012295 -0.018000 -0.006696
v 0.011946 -0.018000 -0.007300
v 0.011567 -0.018000 -0.007886
v 0.011160 -0.018000 -0.008453
v 0.010725 -0.018000 -0.008999
v 0.010263 -0.018000 -0.009522
v 0.009775 -0.018000 -0.010022
v 0.009264 -0.018000 -0.010497
v 0.008729 -0.018000 -0.010946
v 0.008172 -0.018000 -0.011367
v 0.007596 -0.018000 -0.011760
v 0.007000 -0.018000 -0.012124
v 0.006387 -0.018000 -0.012458
v 0.005758 -0.018000 -0.012761
v 0.005115 -0.018000 -0.013032
v 0.004459 -0.018000 -0.013271
v 0.003792 -0.018000 -0.013477
v 0.003115 -0.018000 -0.013649
v 0.002431 -0.018000 -0.013787
v 0.001741 -0.018000 -0.013891
v 0.001046 -0.018000 -0.013961
v 0.000349 -0.018000 -0.013996
v -0.000349 -0.018000 -0.013996
v -0.001046 -0.018000 -0.013961
v -0.001741 -0.018000 -0.013891
v -0.002431 -0.018000 -0.013787
v -0.003115 -0.018000 -0.013649
v -0.003792 -0.018000 -0.013477
v -0.004459 -0.018000 -0.013271
v -0.005115 -0.018000 -0.013032
v -0.005758 -0.018000 -0.012761
v -0.006387 -0.018000 -0.012458
v -0.007000 -0.018000 -0.012124
v -0.007596 -0.018000 -0.011760
v -0.008172 -0.018000 -0.011367
v -0.008729 -0.018000 -0.010946
v -0.009264 -0.018000 -0.010497
v -0.009775 -0.018000 -0.010022
v -0.010263 -0.018000 -0.009522
v -0.010725 -0.018000 -0.008999
v -0.011160 -0.018000 -0.008453
v -0.011567 -0.018000 -0.007886
v -0.011946 -0.018000 -0.007300
v -0.012295 -0.018000 -0.006696
v -0.012614 -0.018000 -0.006074
v -0.012901 -0.018000 -0.005438
v -0.013156 -0.018000 -0.004788
v -0.013378 -0.018000 -0.004127
v -0.013567 -0.018000 -0.003455
v -0.013722 -0.018000 -0.002774
v -0.013844 -0.018000 -0.002087
v -0.013930 -0.018000 -0.001394
v -0.013983 -0.018000 -0.000698
v 0.191000 0.000000 0.036000
v 0.191000 -0.018000 0.036000
v -0.191000 -0.018000 0.036000
v -0.191000 0.000000 0.036000
v -0.014000 -0.018000 0.000000
v -0.013983 -0.018000 0.000698
v -0.013930 -0.018000 0.001394
v -0.013844 -0.018000 0.002087
v -0.013722 -0.018000 0.002774
v -0.013567 -0.018000 0.003455
v -0.013378 -0.018000 0.004127
v -0.013156 -0.018000 0.004788
v -0.012901 -0.018000 0.005438
v -0.012614 -0.018000 0.006074
v -0.012295 -0.018000 0.006696
v -0.011946 -0.018000 0.007300
v -0.011567 -0.018000 0.007886
v -0.011160 -0.018000 0.008453
v -0.010725 -0.018000 0.008999
v -0.010263 -0.018000 0.009522
v -0.009775 -0.018000 0.010022
v -0.009264 -0.018000 0.010497
v -0.008729 -0.018000 0.010946
v -0.008172 -0.018000 0.011367
v -0.007596 -0.018000 0.011760
v -0.007000 -0.018000 0.012124
v -0.006387 -0.018000 0.012458
v -0.005758 -0.018000 0.012761
v -0.005115 -0.018000 0.013032
v -0.004459 -0.018000 0.013271
v -0.003792 -0.018000 0.013477
v -0.003115 -0.018000 0.013649
v -0.002431 -0.018000 0.013787
v -0.001741 -0.018000 0.013891
v -0.001046 -0.018000 0.013961
v -0.000349 -0.018000 0.013996
v 0.000349 -0.018000 0.013996
v 0.001046 -0.018000 0.013961
v 0.001741 -0.018000 0.013891
v 0.002431 -0.018000 0.013787
v 0.003115 -0.018000 0.013649
v 0.003792 -0.018000 0.013477
v 0.004459 -0.018000 0.013271
v 0.005115 -0.018000 0.013032
v 0.005758 -0.018000 0.012761
v 0.006387 -0.018000 0.012458
v 0.007000 -0.018000 0.012124
v 0.007596 -0.018000 0.011760
v 0.008172 -0.018000 0.011367
v 0.008729 -0.018000 0.010946
v 0.009264 -0.018000 0.010497
v 0.009775 -0.018000 0.010022
v 0.010263 -0.018000 0.009522
v 0.010725 -0.018000 0.008999
v 0.011160 -0.018000 0.008453
v 0.011567 -0.018000 0.007886
v 0.011946 -0.018000 0.007300
v 0.012295 -0.018000 0.006696
v 0.012614 -0.018000 0.006074
v 0.012901 -0.018000 0.005438
v 0.013156 -0.018000 0.004788
v 0.013378 -0.018000 0.004127
v 0.013567 -0.018000 0.003455
v 0.013722 -0.018000 0.002774
v 0.013844 -0.018000 0.002087
v 0.013930 -0.018000 0.001394
v 0.013983 -0.018000 0.000698
v 0.014000 -0.018000 -0.000000
v 0.013983 -0.018000 -0.000698
v 0.013930 -0.018000 -0.001394
v 0.013844 -0.018000 -0.002087
v 0.013722 -0.018000 -0.002774
v 0.013567 -0.018000 -0.003455
v 0.013378 -0.018000 -0.004127
v 0.013156 -0.018000 -0.004788
v 0.012901 -0.018000 -0.005438
v 0.012614 -0.018000 -0.006074
v 0.012295 -0.018000 -0.006696
v 0.011946 -0.018000 -0.007300
v 0.011567 -0.018000 -0.007886
v 0.011160 -0.018000 -0.008453
v 0.010725 -0.018000 -0.008999
v 0.010263 -0.018000 -0.009522
v 0.009775 -0.018000 -0.010022
v 0.009264 -0.018000 -0.010497
v 0.008729 -0.018000 -0.010946
v 0.008172 -0.018000 -0.011367
v 0.007596 -0.018000 -0.011760
v 0.007000 -0.018000 -0.012124
v 0.006387 -0.018000 -0.012458
v 0.005758 -0.018000 -0.012761
v 0.005115 -0.018000 -0.013032
v 0.004459 -0.018000 -0.013271
v 0.003792 -0.018000 -0.013477
v 0.003115 -0.018000 -0.013649
v 0.002431 -0.018000 -0.013787
v 0.001741 -0.018000 -0.013891
v 0.001046 -0.018000 -0.013961
v 0.000349 -0.018000 -0.013996
v -0.000349 -0.018000 -0.013996
v -0.001046 -0.018000 -0.013961
v -0.001741 -0.018000 -0.013891
v -0.002431 -0.018000 -0.013787
v -0.003115 -0.018000 -0.013649
v -0.003792 -0.018000 -0.013477
v -0.004459 -0.018000 -0.013271
v -0.005115 -0.018000 -0.013032
v -0.005758 -0.018000 -0.012761
v -0.006387 -0.018000 -0.012458
v -0.007000 -0.018000 -0.012124
v -0.007596 -0.018000 -0.011760
v -0.008172 -0.018000 -0.011367
v -0.008729 -0.018000 -0.010946
v -0.009264 -0.018000 -0.010497
v -0.009775 -0.018000 -0.010022
v -0.010263 -0.018000 -0.009522
v -0.010725 -0.018000 -0.008999
v -0.011160 -0.018000 -0.008453
v -0.011567 -0.018000 -0.007886
v -0.011946 -0.018000 -0.007300
v -0.012295 -0.018000 -0.006696
v -0.012614 -0.018000 -0.006074
v -0.012901 -0.018000 -0.005438
v -0.013156 -0.018000 -0.004788
v -0.013378 -0.018000 -0.004127
v -0.013567 -0.018000 -0.003455
v -0.013722 -0.018000 -0.002774
v -0.013844 -0.018000 -0.002087
v -0.013930 -0.018000 -0.001394
v -0.013983 -0.018000 -0.000698
v -0.014000 -0.018000 0.000000
v -0.014000 0.000000 0.000000
v -0.014000 0.000000 0.000000
v -0.013983 0.000000 -0.000698
v -0.013930 0.000000 -0.001394
v -0.013844 0.000000 -0.002087
v -0.013722 0.000000 -0.002774
v -0.013567 0.000000 -0.003455
v -0.013378 0.000000 -0.004127
v -0.013156 0.000000 -0.004788
v -0.012901 0.000000 -0.005438
v -0.012614 0.000000 -0.006074
v -0.012295 0.000000 -0.006696
v -0.011946 0.000000 -0.007300
v -0.011567 0.000000 -0.007886
v -0.011160 0.000000 -0.008453
v -0.010725 0.000000 -0.008999
v -0.010263 0.000000 -0.009522
v -0.009775 0.000000 -0.010022
v -0.009264 0.000000 -0.010497
v -0.008729 0.000000 -0.010946
v -0.008172 0.000000 -0.011367
v -0.007596 0.000000 -0.011760
v -0.007000 0.000000 -0.012124
v -0.006387 0.000000 -0.012458
v -0.005758 0.000000 -0.012761
v -0.005115 0.000000 -0.013032
v -0.004459 0.000000 -0.013271
v -0.003792 0.000000 -0.013477
v -0.003115 0.000000 -0.013649
v -0.002431 0.000000 -0.013787
v -0.001741 0.000000 -0.013891
v -0.001046 0.000000 -0.013961
v -0.000349 0.000000 -0.013996
v 0.000349 0.000000 -0.013996
v 0.001046 0.000000 -0.013961
v 0.001741 0.000000 -0.013891
v 0.002431 0.000000 -0.013787
v 0.003115 0.000000 -0.013649
v 0.003792 0.000000 -0.013477
v 0.004459 0.000000 -0.013271
v 0.005115 0.000000 -0.013032
v 0.005758 0.000000 -0.012761
v 0.006387 0.000000 -0.012458
v 0.007000 0.000000 -0.012124
v 0.007596 0.000000 -0.011760
v 0.008172 0.000000 -0.011367
v 0.008729 0.000000 -0.010946
v 0.009264 0.000000 -0.010497
v 0.009775 0.000000 -0.010022
v 0.010263 0.000000 -0.009522
v 0.010725 0.000000 -0.008999
v 0.011160 0.000000 -0.008453
v 0.011567 0.000000 -0.007886
v 0.011946 0.000000 -0.007300
v 0.012295 0.000000 -0.006696
v 0.012614 0.000000 -0.006074
v 0.012901 0.000000 -0.005438
v 0.013156 0.000000 -0.004788
v 0.013378 0.000000 -0.004127
v 0.013567 0.000000 -0.003455
v 0.013722 0.000000 -0.002774
v 0.013844 0.000000 -0.002087
v 0.013930 0.000000 -0.001394
v 0.013983 0.000000 -0.000698
v 0.014000 0.000000 0.000000
v 0.013983 0.000000 0.000698
v 0.013930 0.000000 0.001394
v 0.013844 0.000000 0.002087
v 0.013722 0.000000 0.002774
v 0.013567 0.000000 0.003455
v 0.013378 0.000000 0.004127
v 0.013156 0.000000 0.004788
v 0.012901 0.000000 0.005438
v 0.012614 0.000000 0.006074
v 0.012295 0.000000 0.006696
v 0.011946 0.000000 0.007300
v 0.011567 0.000000 0.007886
v 0.011160 0.000000 0.008453
v 0.010725 0.000000 0.008999
v 0.010263 0.000000 0.009522
v 0.009775 0.000000 0.010022
v 0.009264 0.000000 0.010497
v 0.008729 0.000000 0.010946
v 0.008172 0.000000 0.011367
v 0.007596 0.000000 0.011760
v 0.007000 0.000000 0.012124
v 0.006387 0.000000 0.012458
v 0.005758 0.000000 0.012761
v 0.005115 0.000000 0.013032
v 0.004459 0.000000 0.013271
v 0.003792 0.000000 0.013477
v 0.003115 0.000000 0.013649
v 0.002431 0.000000 0.013787
v 0.001741 0.000000 0.013891
v 0.001046 0.000000 0.013961
v 0.000349 0.000000 0.013996
v -0.000349 0.000000 0.013996
v -0.001046 0.000000 0.013961
v -0.001741 0.000000 0.013891
v -0.002431 0.000000 0.013787
v -0.003115 0.000000 0.013649
v -0.003792 0.000000 0.013477
v -0.004459 0.000000 0.013271
v -0.005115 0.000000 0.013032
v -0.005758 0.000000 0.012761
v -0.006387 0.000000 0.012458
v -0.007000 0.000000 0.012124
v -0.007596 0.000000 0.011760
v -0.008172 0.000000 0.011367
v -0.008729 0.000000 0.010946
v -0.009264 0.000000 0.010497
v -0.009775 0.000000 0.010022
v -0.010263 0.000000 0.009522
v -0.010725 0.000000 0.008999
v -0.011160 0.000000 0.008453
v -0.011567 0.000000 0.007886
v -0.011946 0.000000 0.007300
v -0.012295 0.000000 0.006696
v -0.012614 0.000000 0.006074
v -0.012901 0.000000 0.005438
v -0.013156 0.000000 0.004788
v -0.013378 0.000000 0.004127
v -0.013567 0.000000 0.003455
v -0.013722 0.000000 0.002774
v -0.013844 0.000000 0.002087
v -0.013930 0.000000 0.001394
v -0.013983 0.000000 0.000698
f 4 2 1
f 4 3 2
f 8 6 5
f 8 7 6
f 12 10 9
f 12 11 10
f 128 16 127
f 126 127 16
f 129 16 128
f 125 126 16
f 130 16 129
f 124 125 16
f 131 16 130
f 123 124 16
f 132 16 131
f 122 123 16
f 133 16 132
f 121 122 16
f 134 16 133
f 120 121 16
f 135 16 134
f 119 120 16
f 136 16 135
f 118 119 16
f 137 16 136
f 117 118 16
f 138 16 137
f 116 117 16
f 139 16 138
f 140 16 139
f 141 16 140
f 142 16 141
f 17 13 16
f 17 16 142
f 18 13 17
f 19 13 18
f 20 13 19
f 21 13 20
f 22 13 21
f 23 13 22
f 24 13 23
f 25 13 24
f 26 13 25
f 27 13 26
f 28 13 27
f 29 13 28
f 30 13 29
f 31 13 30
f 32 13 31
f 33 13 32
f 34 13 33
f 35 13 34
f 36 13 35
f 37 13 36
f 38 13 37
f 39 13 38
f 40 13 39
f 41 13 40
f 42 13 41
f 43 13 42
f 44 13 43
f 15 80 81
f 15 81 82
f 15 82 83
f 15 83 84
f 15 84 85
f 15 85 86
f 15 86 87
f 15 87 88
f 15 88 89
f 15 89 90
f 15 90 91
f 15 91 92
f 15 92 93
f 15 93 94
f 15 94 95
f 15 95 96
f 15 96 97
f 15 97 98
f 15 98 99
f 15 99 100
f 15 100 101
f 15 101 102
f 15 102 103
f 15 103 104
f 15 104 105
f 15 105 106
f 15 106 107
f 15 107 108
f 14 80 15
f 14 52 53
f 14 53 54
f 14 54 55
f 14 55 56
f 14 56 57
f 14 57 58
f 14 58 59
f 14 59 60
f 14 60 61
f 14 61 62
f 14 62 63
f 14 63 64
f 14 64 65
f 14 65 66
f 14 66 67
f 14 67 68
f 14 68 69
f 14 69 70
f 14 70 71
f 14 71 72
f 14 72 73
f 14 73 74
f 14 74 75
f 14 75 76
f 14 76 77
f 14 77 78
f 14 78 79
f 14 79 80
f 13 49 14
f 49 50 14
f 50 51 14
f 51 52 14
f 13 48 49
f 13 47 48
f 13 46 47
f 13 45 46
f 13 44 45
f 15 111 16
f 111 112 16
f 112 113 16
f 113 114 16
f 114 115 16
f 115 116 16
f 15 110 111
f 15 109 110
f 15 108 109
f 162 163 146
f 164 146 163
f 161 162 146
f 165 146 164
f 160 161 146
f 166 146 165
f 159 160 146
f 167 146 166
f 158 159 146
f 168 146 167
f 157 158 146
f 169 146 168
f 156 157 146
f 170 146 169
f 155 156 146
f 171 146 170
f 154 155 146
f 172 146 171
f 153 154 146
f 173 146 172
f 152 153 146
f 174 146 173
f 151 152 146
f 150 151 146
f 149 150 146
f 148 149 146
f 147 146 143
f 147 148 146
f 272 147 143
f 271 272 143
f 270 271 143
f 269 270 143
f 268 269 143
f 267 268 143
f 266 267 143
f 265 266 143
f 264 265 143
f 263 264 143
f 262 263 143
f 261 262 143
f 260 261 143
f 259 260 143
f 258 259 143
f 257 258 143
f 256 257 143
f 255 256 143
f 254 255 143
f 253 254 143
f 252 253 143
f 251 252 143
f 250 251 143
f 249 250 143
f 248 249 143
f 247 248 143
f 246 247 143
f 145 182 183
f 145 183 184
f 145 184 185
f 145 185 186
f 145 186 187
f 145 187 188
f 145 188 189
f 145 189 190
f 145 190 191
f 145 191 192
f 145 192 193
f 145 193 194
f 145 194 195
f 145 195 196
f 145 196 197
f 145 197 198
f 145 198 199
f 145 199 200
f 145 200 201
f 145 201 202
f 145 202 203
f 145 203 204
f 145 204 205
f 145 205 206
f 145 206 207
f 145 207 208
f 145 208 209
f 145 209 210
f 144 210 211
f 144 211 212
f 144 145 210
f 144 212 213
f 144 213 214
f 144 214 215
f 144 215 216
f 144 216 217
f 144 217 218
f 144 218 219
f 144 219 220
f 144 220 221
f 144 221 222
f 144 222 223
f 144 223 224
f 144 224 225
f 144 225 226
f 144 226 227
f 144 227 228
f 144 228 229
f 144 229 230
f 144 230 231
f 144 231 232
f 144 232 233
f 144 233 234
f 144 234 235
f 144 235 236
f 144 236 237
f 144 237 238
f 143 144 241
f 241 144 240
f 240 144 239
f 239 144 238
f 143 241 242
f 143 242 243
f 143 243 244
f 143 244 245
f 143 245 246
f 145 146 178
f 178 146 177
f 177 146 176
f 176 146 175
f 175 146 174
f 145 178 179
f 145 179 180
f 145 180 181
f 145 181 182
f 276 274 273
f 276 275 274
f 277 404 530
f 278 530 529
f 278 277 530
f 279 529 528
f 279 278 529
f 280 528 527
f 280 279 528
f 281 527 526
f 281 280 527
f 282 526 525
f 282 281 526
f 283 525 524
f 283 282 525
f 284 524 523
f 284 283 524
f 285 523 522
f 285 284 523
f 286 522 521
f 286 285 522
f 287 521 520
f 287 286 521
f 288 287 520
f 288 520 519
f 289 288 519
f 289 519 518
f 290 289 518
f 290 518 517
f 291 290 517
f 291 517 516
f 292 291 516
f 292 516 515
f 293 292 515
f 293 515 514
f 294 293 514
f 294 514 513
f 295 294 513
f 295 513 512
f 296 512 511
f 296 295 512
f 297 296 511
f 297 511 510
f 298 510 509
f 298 297 510
f 299 509 508
f 299 298 509
f 300 508 507
f 300 299 508
f 301 507 506
f 301 300 507
f 302 506 505
f 302 301 506
f 303 505 504
f 303 302 505
f 304 504 503
f 304 303 504
f 305 503 502
f 305 304 503
f 306 502 501
f 306 305 502
f 307 501 500
f 307 306 501
f 308 500 499
f 308 307 500
f 309 499 498
f 309 308 499
f 310 309 498
f 311 497 496
f 311 498 497
f 311 310 498
f 312 496 495
f 312 311 496
f 313 312 495
f 314 313 495
f 314 494 493
f 314 495 494
f 315 314 493
f 315 493 492
f 316 315 492
f 317 491 490
f 317 492 491
f 317 316 492
f 318 317 490
f 319 490 489
f 319 318 490
f 320 488 487
f 320 489 488
f 320 319 489
f 321 487 486
f 321 320 487
f 322 321 486
f 323 485 484
f 323 486 485
f 323 322 486
f 324 484 483
f 324 323 484
f 325 483 482
f 325 324 483
f 326 482 481
f 326 325 482
f 327 481 480
f 327 326 481
f 328 480 479
f 328 327 480
f 329 328 479
f 329 479 478
f 330 329 478
f 331 330 478
f 331 477 476
f 331 478 477
f 332 331 476
f 332 476 475
f 333 332 475
f 333 475 474
f 334 333 474
f 334 474 473
f 335 334 473
f 335 473 472
f 336 335 472
f 337 471 470
f 337 472 471
f 337 336 472
f 338 337 470
f 339 338 470
f 339 469 468
f 339 470 469
f 340 339 468
f 341 340 468
f 341 467 466
f 341 468 467
f 342 341 466
f 342 466 465
f 343 342 465
f 344 343 465
f 344 464 463
f 344 465 464
f 345 344 463
f 345 463 462
f 346 345 462
f 347 346 462
f 347 461 460
f 347 462 461
f 348 347 460
f 348 460 459
f 349 348 459
f 350 349 459
f 350 458 457
f 350 459 458
f 351 350 457
f 352 351 457
f 352 456 455
f 352 457 456
f 353 352 455
f 353 455 454
f 354 353 454
f 355 354 454
f 355 454 453
f 356 355 453
f 356 452 451
f 356 453 452
f 357 356 451
f 358 451 450
f 358 357 451
f 359 449 448
f 359 450 449
f 359 358 450
f 360 448 447
f 360 359 448
f 361 360 447
f 362 447 446
f 362 361 447
f 363 445 444
f 363 446 445
f 363 362 446
f 364 444 443
f 364 363 444
f 365 443 442
f 365 364 443
f 366 365 442
f 367 442 441
f 367 366 442
f 368 367 441
f 368 440 439
f 368 441 440
f 369 368 439
f 370 369 439
f 370 438 437
f 370 439 438
f 371 370 437
f 372 371 437
f 372 437 436
f 373 372 436
f 373 435 434
f 373 436 435
f 374 373 434
f 374 434 433
f 375 374 433
f 376 375 433
f 376 433 432
f 377 431 430
f 377 432 431
f 377 376 432
f 378 430 429
f 378 377 430
f 379 378 429
f 380 428 427
f 380 429 428
f 380 379 429
f 381 380 427
f 382 426 425
f 382 427 426
f 382 381 427
f 383 382 425
f 384 424 423
f 384 425 424
f 384 383 425
f 385 384 423
f 386 423 422
f 386 385 423
f 387 422 421
f 387 386 422
f 388 421 420
f 388 387 421
f 389 419 418
f 389 420 419
f 389 388 420
f 390 389 418
f 391 390 418
f 391 417 416
f 391 418 417
f 392 391 416
f 393 392 416
f 393 416 415
f 394 393 415
f 394 414 413
f 394 415 414
f 395 394 413
f 396 395 413
f 396 412 411
f 396 413 412
f 397 396 411
f 398 411 410
f 398 397 411
f 399 409 408
f 399 410 409
f 399 398 410
f 400 399 408
f 401 408 407
f 401 400 408
f 402 407 406
f 402 401 407
f 403 406 405
f 403 402 406
