o mesh
v 0.038400 0.000000 0.003500
v 0.038400 0.000000 -0.003500
v 0.038318 0.002511 0.003500
v 0.038318 0.002511 -0.003500
v 0.038071 0.005012 0.003500
v 0.038071 0.005012 -0.003500
v 0.037662 0.007491 0.003500
v 0.037662 0.007491 -0.003500
v 0.037092 0.009939 0.003500
v 0.037092 0.009939 -0.003500
v 0.036362 0.012343 0.003500
v 0.036362 0.012343 -0.003500
v 0.035477 0.014695 0.003500
v 0.035477 0.014695 -0.003500
v 0.034440 0.016984 0.003500
v 0.034440 0.016984 -0.003500
v 0.033255 0.019200 0.003500
v 0.033255 0.019200 -0.003500
v 0.031928 0.021334 0.003500
v 0.031928 0.021334 -0.003500
v 0.030465 0.023376 0.003500
v 0.030465 0.023376 -0.003500
v 0.028871 0.025319 0.003500
v 0.028871 0.025319 -0.003500
v 0.027153 0.027153 0.003500
v 0.027153 0.027153 -0.003500
v 0.025319 0.028871 0.003500
v 0.025319 0.028871 -0.003500
v 0.023376 0.030465 0.003500
v 0.023376 0.030465 -0.003500
v 0.021334 0.031928 0.003500
v 0.021334 0.031928 -0.003500
v 0.019200 0.033255 0.003500
v 0.019200 0.033255 -0.003500
v 0.016984 0.034440 0.003500
v 0.016984 0.034440 -0.003500
v 0.014695 0.035477 0.003500
v 0.014695 0.035477 -0.003500
v 0.012343 0.036362 0.003500
v 0.012343 0.036362 -0.003500
v 0.009939 0.037092 0.003500
v 0.009939 0.037092 -0.003500
v 0.007491 0.037662 0.003500
v 0.007491 0.037662 -0.003500
v 0.005012 0.038071 0.003500
v 0.005012 0.038071 -0.003500
v 0.002511 0.038318 0.003500
v 0.002511 0.038318 -0.003500
v 0.000000 0.038400 0.003500
v 0.000000 0.038400 -0.003500
v -0.002511 0.038318 0.003500
v -0.002511 0.038318 -0.003500
v -0.005012 0.038071 0.003500
v -0.005012 0.038071 -0.003500
v -0.007491 0.037662 0.003500
v -0.007491 0.037662 -0.003500
v -0.009939 0.037092 0.003500
v -0.009939 0.037092 -0.003500
v -0.012343 0.036362 0.003500
v -0.012343 0.036362 -0.003500
v -0.014695 0.035477 0.003500
v -0.014695 0.035477 -0.003500
v -0.016984 0.034440 0.003500
v -0.016984 0.034440 -0.003500
v -0.019200 0.033255 0.003500
v -0.019200 0.033255 -0.003500
v -0.021334 0.031928 0.003500
v -0.021334 0.031928 -0.003500
v -0.023376 0.030465 0.003500
v -0.023376 0.030465 -0.003500
v -0.025319 0.028871 0.003500
v -0.025319 0.028871 -0.003500
v -0.027153 0.027153 0.003500
v -0.027153 0.027153 -0.003500
v -0.028871 0.025319 0.003500
v -0.028871 0.025319 -0.003500
v -0.030465 0.023376 0.003500
v -0.030465 0.023376 -0.003500
v -0.031928 0.021334 0.003500
v -0.031928 0.021334 -0.003500
v -0.033255 0.019200 0.003500
v -0.033255 0.019200 -0.003500
v -0.034440 0.016984 0.003500
v -0.034440 0.016984 -0.003500
v -0.035477 0.014695 0.003500
v -0.035477 0.014695 -0.003500
v -0.036362 0.012343 0.003500
v -0.036362 0.012343 -0.003500
v -0.037092 0.009939 0.003500
v -0.037092 0.009939 -0.003500
v -0.037662 0.007491 0.003500
v -0.037662 0.007491 -0.003500
v -0.038071 0.005012 0.003500
v -0.038071 0.005012 -0.003500
v -0.038318 0.002511 0.003500
v -0.038318 0.002511 -0.003500
v -0.038400 0.000000 0.003500
v -0.038400 0.000000 -0.003500
v -0.038318 -0.002511 0.003500
v -0.038318 -0.002511 -0.003500
v -0.038071 -0.005012 0.003500
v -0.038071 -0.005012 -0.003500
v -0.037662 -0.007491 0.003500
v -0.037662 -0.007491 -0.003500
v -0.037092 -0.009939 0.003500
v -0.037092 -0.009939 -0.003500
v -0.036362 -0.012343 0.003500
v -0.036362 -0.012343 -0.003500
v -0.035477 -0.014695 0.003500
v -0.035477 -0.014695 -0.003500
v -0.034440 -0.016984 0.003500
v -0.034440 -0.016984 -0.003500
v -0.033255 -0.019200 0.003500
v -0.033255 -0.019200 -0.003500
v -0.031928 -0.021334 0.003500
v -0.031928 -0.021334 -0.003500
v -0.030465 -0.023376 0.003500
v -0.030465 -0.023376 -0.003500
v -0.028871 -0.025319 0.003500
v -0.028871 -0.025319 -0.003500
v -0.027153 -0.027153 0.003500
v -0.027153 -0.027153 -0.003500
v -0.025319 -0.028871 0.003500
v -0.025319 -0.028871 -0.003500
v -0.023376 -0.030465 0.003500
v -0.023376 -0.030465 -0.003500
v -0.021334 -0.031928 0.003500
v -0.021334 -0.031928 -0.003500
v -0.019200 -0.033255 0.003500
v -0.019200 -0.033255 -0.003500
v -0.016984 -0.034440 0.003500
v -0.016984 -0.034440 -0.003500
v -0.014695 -0.035477 0.003500
v -0.014695 -0.035477 -0.003500
v -0.012343 -0.036362 0.003500
v -0.012343 -0.036362 -0.003500
v -0.009939 -0.037092 0.003500
v -0.009939 -0.037092 -0.003500
v -0.007491 -0.037662 0.003500
v -0.007491 -0.037662 -0.003500
v -0.005012 -0.038071 0.003500
v -0.005012 -0.038071 -0.003500
v -0.002511 -0.038318 0.003500
v -0.002511 -0.038318 -0.003500
v -0.000000 -0.038400 0.003500
v -0.000000 -0.038400 -0.003500
v 0.002511 -0.038318 0.003500
v 0.002511 -0.038318 -0.003500
v 0.005012 -0.038071 0.003500
v 0.005012 -0.038071 -0.003500
v 0.007491 -0.037662 0.003500
v 0.007491 -0.037662 -0.003500
v 0.009939 -0.037092 0.003500
v 0.009939 -0.037092 -0.003500
v 0.012343 -0.036362 0.003500
v 0.012343 -0.036362 -0.003500
v 0.014695 -0.035477 0.003500
v 0.014695 -0.035477 -0.003500
v 0.016984 -0.034440 0.003500
v 0.016984 -0.034440 -0.003500
v 0.019200 -0.033255 0.003500
v 0.019200 -0.033255 -0.003500
v 0.021334 -0.031928 0.003500
v 0.021334 -0.031928 -0.003500
v 0.023376 -0.030465 0.003500
v 0.023376 -0.030465 -0.003500
v 0.025319 -0.028871 0.003500
v 0.025319 -0.028871 -0.003500
v 0.027153 -0.027153 0.003500
v 0.027153 -0.027153 -0.003500
v 0.028871 -0.025319 0.003500
v 0.028871 -0.025319 -0.003500
v 0.030465 -0.023376 0.003500
v 0.030465 -0.023376 -0.003500
v 0.031928 -0.021334 0.003500
v 0.031928 -0.021334 -0.003500
v 0.033255 -0.019200 0.003500
v 0.033255 -0.019200 -0.003500
v 0.034440 -0.016984 0.003500
v 0.034440 -0.016984 -0.003500
v 0.035477 -0.014695 0.003500
v 0.035477 -0.014695 -0.003500
v 0.036362 -0.012343 0.003500
v 0.036362 -0.012343 -0.003500
v 0.037092 -0.009939 0.003500
v 0.037092 -0.009939 -0.003500
v 0.037662 -0.007491 0.003500
v 0.037662 -0.007491 -0.003500
v 0.038071 -0.005012 0.003500
v 0.038071 -0.005012 -0.003500
v 0.038318 -0.002511 0.003500
v 0.038318 -0.002511 -0.003500
v 0.000000 0.000000 0.003500
v 0.000000 0.000000 -0.003500
f 1 2 4
f 1 4 3
f 3 4 6
f 3 6 5
f 5 6 8
f 5 8 7
f 7 8 10
f 7 10 9
f 9 10 12
f 9 12 11
f 11 12 14
f 11 14 13
f 13 14 16
f 13 16 15
f 15 16 18
f 15 18 17
f 17 18 20
f 17 20 19
f 19 20 22
f 19 22 21
f 21 22 24
f 21 24 23
f 23 24 26
f 23 26 25
f 25 26 28
f 25 28 27
f 27 28 30
f 27 30 29
f 29 30 32
f 29 32 31
f 31 32 34
f 31 34 33
f 33 34 36
f 33 36 35
f 35 36 38
f 35 38 37
f 37 38 40
f 37 40 39
f 39 40 42
f 39 42 41
f 41 42 44
f 41 44 43
f 43 44 46
f 43 46 45
f 45 46 48
f 45 48 47
f 47 48 50
f 47 50 49
f 49 50 52
f 49 52 51
f 51 52 54
f 51 54 53
f 53 54 56
f 53 56 55
f 55 56 58
f 55 58 57
f 57 58 60
f 57 60 59
f 59 60 62
f 59 62 61
f 61 62 64
f 61 64 63
f 63 64 66
f 63 66 65
f 65 66 68
f 65 68 67
f 67 68 70
f 67 70 69
f 69 70 72
f 69 72 71
f 71 72 74
f 71 74 73
f 73 74 76
f 73 76 75
f 75 76 78
f 75 78 77
f 77 78 80
f 77 80 79
f 79 80 82
f 79 82 81
f 81 82 84
f 81 84 83
f 83 84 86
f 83 86 85
f 85 86 88
f 85 88 87
f 87 88 90
f 87 90 89
f 89 90 92
f 89 92 91
f 91 92 94
f 91 94 93
f 93 94 96
f 93 96 95
f 95 96 98
f 95 98 97
f 97 98 100
f 97 100 99
f 99 100 102
f 99 102 101
f 101 102 104
f 101 104 103
f 103 104 106
f 103 106 105
f 105 106 108
f 105 108 107
f 107 108 110
f 107 110 109
f 109 110 112
f 109 112 111
f 111 112 114
f 111 114 113
f 113 114 116
f 113 116 115
f 115 116 118
f 115 118 117
f 117 118 120
f 117 120 119
f 119 120 122
f 119 122 121
f 121 122 124
f 121 124 123
f 123 124 126
f 123 126 125
f 125 126 128
f 125 128 127
f 127 128 130
f 127 130 129
f 129 130 132
f 129 132 131
f 131 132 134
f 131 134 133
f 133 134 136
f 133 136 135
f 135 136 138
f 135 138 137
f 137 138 140
f 137 140 139
f 139 140 142
f 139 142 141
f 141 142 144
f 141 144 143
f 143 144 146
f 143 146 145
f 145 146 148
f 145 148 147
f 147 148 150
f 147 150 149
f 149 150 152
f 149 152 151
f 151 152 154
f 151 154 153
f 153 154 156
f 153 156 155
f 155 156 158
f 155 158 157
f 157 158 160
f 157 160 159
f 159 160 162
f 159 162 161
f 161 162 164
f 161 164 163
f 163 164 166
f 163 166 165
f 165 166 168
f 165 168 167
f 167 168 170
f 167 170 169
f 169 170 172
f 169 172 171
f 171 172 174
f 171 174 173
f 173 174 176
f 173 176 175
f 175 176 178
f 175 178 177
f 177 178 180
f 177 180 179
f 179 180 182
f 179 182 181
f 181 182 184
f 181 184 183
f 183 184 186
f 183 186 185
f 185 186 188
f 185 188 187
f 187 188 190
f 187 190 189
f 189 190 192
f 189 192 191
f 191 192 2
f 191 2 1
f 193 1 3
f 194 4 2
f 193 3 5
f 194 6 4
f 193 5 7
f 194 8 6
f 193 7 9
f 194 10 8
f 193 9 11
f 194 12 10
f 193 11 13
f 194 14 12
f 193 13 15
f 194 16 14
f 193 15 17
f 194 18 16
f 193 17 19
f 194 20 18
f 193 19 21
f 194 22 20
f 193 21 23
f 194 24 22
f 193 23 25
f 194 26 24
f 193 25 27
f 194 28 26
f 193 27 29
f 194 30 28
f 193 29 31
f 194 32 30
f 193 31 33
f 194 34 32
f 193 33 35
f 194 36 34
f 193 35 37
f 194 38 36
f 193 37 39
f 194 40 38
f 193 39 41
f 194 42 40
f 193 41 43
f 194 44 42
f 193 43 45
f 194 46 44
f 193 45 47
f 194 48 46
f 193 47 49
f 194 50 48
f 193 49 51
f 194 52 50
f 193 51 53
f 194 54 52
f 193 53 55
f 194 56 54
f 193 55 57
f 194 58 56
f 193 57 59
f 194 60 58
f 193 59 61
f 194 62 60
f 193 61 63
f 194 64 62
f 193 63 65
f 194 66 64
f 193 65 67
f 194 68 66
f 193 67 69
f 194 70 68
f 193 69 71
f 194 72 70
f 193 71 73
f 194 74 72
f 193 73 75
f 194 76 74
f 193 75 77
f 194 78 76
f 193 77 79
f 194 80 78
f 193 79 81
f 194 82 80
f 193 81 83
f 194 84 82
f 193 83 85
f 194 86 84
f 193 85 87
f 194 88 86
f 193 87 89
f 194 90 88
f 193 89 91
f 194 92 90
f 193 91 93
f 194 94 92
f 193 93 95
f 194 96 94
f 193 95 97
f 194 98 96
f 193 97 99
f 194 100 98
f 193 99 101
f 194 102 100
f 193 101 103
f 194 104 102
f 193 103 105
f 194 106 104
f 193 105 107
f 194 108 106
f 193 107 109
f 194 110 108
f 193 109 111
f 194 112 110
f 193 111 113
f 194 114 112
f 193 113 115
f 194 116 114
f 193 115 117
f 194 118 116
f 193 117 119
f 194 120 118
f 193 119 121
f 194 122 120
f 193 121 123
f 194 124 122
f 193 123 125
f 194 126 124
f 193 125 127
f 194 128 126
f 193 127 129
f 194 130 128
f 193 129 131
f 194 132 130
f 193 131 133
f 194 134 132
f 193 133 135
f 194 136 134
f 193 135 137
f 194 138 136
f 193 137 139
f 194 140 138
f 193 139 141
f 194 142 140
f 193 141 143
f 194 144 142
f 193 143 145
f 194 146 144
f 193 145 147
f 194 148 146
f 193 147 149
f 194 150 148
f 193 149 151
f 194 152 150
f 193 151 153
f 194 154 152
f 193 153 155
f 194 156 154
f 193 155 157
f 194 158 156
f 193 157 159
f 194 160 158
f 193 159 161
f 194 162 160
f 193 161 163
f 194 164 162
f 193 163 165
f 194 166 164
f 193 165 167
f 194 168 166
f 193 167 169
f 194 170 168
f 193 169 171
f 194 172 170
f 193 171 173
f 194 174 172
f 193 173 175
f 194 176 174
f 193 175 177
f 194 178 176
f 193 177 179
f 194 180 178
f 193 179 181
f 194 182 180
f 193 181 183
f 194 184 182
f 193 183 185
f 194 186 184
f 193 185 187
f 194 188 186
f 193 187 189
f 194 190 188
f 193 189 191
f 194 192 190
f 193 191 1
f 194 2 192
