o mesh
v 0.039892 0.000000 0.073389
v 0.039760 0.001352 0.073532
v 0.039375 0.002595 0.073950
v 0.038769 0.003628 0.074608
v 0.037991 0.004366 0.075454
v 0.037103 0.004751 0.076418
v 0.036177 0.004751 0.077423
v 0.035289 0.004366 0.078387
v 0.034511 0.003628 0.079233
v 0.033905 0.002595 0.079891
v 0.033520 0.001352 0.080308
v 0.033388 0.000000 0.080451
v 0.033520 -0.001352 0.080308
v 0.033905 -0.002595 0.079891
v 0.034511 -0.003628 0.079233
v 0.035289 -0.004366 0.078387
v 0.036177 -0.004751 0.077423
v 0.037103 -0.004751 0.076418
v 0.037991 -0.004366 0.075454
v 0.038769 -0.003628 0.074608
v 0.039375 -0.002595 0.073950
v 0.039760 -0.001352 0.073532
v 0.042255 0.000000 0.075577
v 0.042132 0.001352 0.075727
v 0.041772 0.002595 0.076166
v 0.041205 0.003628 0.076858
v 0.040477 0.004366 0.077747
v 0.039646 0.004751 0.078761
v 0.038780 0.004751 0.079818
v 0.037949 0.004366 0.080832
v 0.037220 0.003628 0.081721
v 0.036653 0.002595 0.082413
v 0.036294 0.001352 0.082852
v 0.036170 0.000000 0.083002
v 0.036294 -0.001352 0.082852
v 0.036653 -0.002595 0.082413
v 0.037220 -0.003628 0.081721
v 0.037949 -0.004366 0.080832
v 0.038780 -0.004751 0.079818
v 0.039646 -0.004751 0.078761
v 0.040477 -0.004366 0.077747
v 0.041205 -0.003628 0.076858
v 0.041772 -0.002595 0.076166
v 0.042132 -0.001352 0.075727
v 0.044623 0.000000 0.077298
v 0.044518 0.001352 0.077462
v 0.044212 0.002595 0.077939
v 0.043729 0.003628 0.078693
v 0.043108 0.004366 0.079660
v 0.042400 0.004751 0.080763
v 0.041663 0.004751 0.081913
v 0.040955 0.004366 0.083017
v 0.040334 0.003628 0.083984
v 0.039851 0.002595 0.084737
v 0.039545 0.001352 0.085215
v 0.039440 0.000000 0.085379
v 0.039545 -0.001352 0.085215
v 0.039851 -0.002595 0.084737
v 0.040334 -0.003628 0.083984
v 0.040955 -0.004366 0.083017
v 0.041663 -0.004751 0.081913
v 0.042400 -0.004751 0.080763
v 0.043108 -0.004366 0.079660
v 0.043729 -0.003628 0.078693
v 0.044212 -0.002595 0.077939
v 0.044518 -0.001352 0.077462
v 0.047161 0.000000 0.078724
v 0.047076 0.001352 0.078899
v 0.046828 0.002595 0.079409
v 0.046436 0.003628 0.080214
v 0.045932 0.004366 0.081247
v 0.045358 0.004751 0.082425
v 0.044760 0.004751 0.083654
v 0.044186 0.004366 0.084832
v 0.043682 0.003628 0.085865
v 0.043290 0.002595 0.086670
v 0.043042 0.001352 0.087180
v 0.042957 0.000000 0.087355
v 0.043042 -0.001352 0.087180
v 0.043290 -0.002595 0.086670
v 0.043682 -0.003628 0.085865
v 0.044186 -0.004366 0.084832
v 0.044760 -0.004751 0.083654
v 0.045358 -0.004751 0.082425
v 0.045932 -0.004366 0.081247
v 0.046436 -0.003628 0.080214
v 0.046828 -0.002595 0.079409
v 0.047076 -0.001352 0.078899
v 0.049837 0.000000 0.079839
v 0.049773 0.001352 0.080022
v 0.049586 0.002595 0.080558
v 0.049291 0.003628 0.081403
v 0.048912 0.004366 0.082488
v 0.048480 0.004751 0.083726
v 0.048030 0.004751 0.085016
v 0.047598 0.004366 0.086253
v 0.047220 0.003628 0.087339
v 0.046925 0.002595 0.088183
v 0.046738 0.001352 0.088719
v 0.046674 0.000000 0.088903
v 0.046738 -0.001352 0.088719
v 0.046925 -0.002595 0.088183
v 0.047220 -0.003628 0.087339
v 0.047598 -0.004366 0.086253
v 0.048030 -0.004751 0.085016
v 0.048480 -0.004751 0.083726
v 0.048912 -0.004366 0.082488
v 0.049291 -0.003628 0.081403
v 0.049586 -0.002595 0.080558
v 0.049773 -0.001352 0.080022
v 0.052614 0.000000 0.080627
v 0.052572 0.001352 0.080817
v 0.052450 0.002595 0.081371
v 0.052257 0.003628 0.082245
v 0.052009 0.004366 0.083367
v 0.051726 0.004751 0.084647
v 0.051431 0.004751 0.085981
v 0.051148 0.004366 0.087261
v 0.050900 0.003628 0.088384
v 0.050707 0.002595 0.089257
v 0.050584 0.001352 0.089811
v 0.050542 0.000000 0.090001
v 0.050584 -0.001352 0.089811
v 0.050707 -0.002595 0.089257
v 0.050900 -0.003628 0.088384
v 0.051148 -0.004366 0.087261
v 0.051431 -0.004751 0.085981
v 0.051726 -0.004751 0.084647
v 0.052009 -0.004366 0.083367
v 0.052257 -0.003628 0.082245
v 0.052450 -0.002595 0.081371
v 0.052572 -0.001352 0.080817
v 0.055458 0.000000 0.081081
v 0.055439 0.001352 0.081275
v 0.055383 0.002595 0.081840
v 0.055295 0.003628 0.082730
v 0.055181 0.004366 0.083874
v 0.055052 0.004751 0.085178
v 0.054917 0.004751 0.086538
v 0.054787 0.004366 0.087842
v 0.054674 0.003628 0.088986
v 0.054585 0.002595 0.089876
v 0.054529 0.001352 0.090441
v 0.054510 0.000000 0.090634
v 0.054529 -0.001352 0.090441
v 0.054585 -0.002595 0.089876
v 0.054674 -0.003628 0.088986
v 0.054787 -0.004366 0.087842
v 0.054917 -0.004751 0.086538
v 0.055052 -0.004751 0.085178
v 0.055181 -0.004366 0.083874
v 0.055295 -0.003628 0.082730
v 0.055383 -0.002595 0.081840
v 0.055439 -0.001352 0.081275
v 0.058333 0.000000 0.081195
v 0.058337 0.001352 0.081390
v 0.058348 0.002595 0.081957
v 0.058366 0.003628 0.082852
v 0.058388 0.004366 0.084001
v 0.058414 0.004751 0.085311
v 0.058441 0.004751 0.086677
v 0.058467 0.004366 0.087988
v 0.058490 0.003628 0.089137
v 0.058508 0.002595 0.090032
v 0.058519 0.001352 0.090599
v 0.058523 0.000000 0.090793
v 0.058519 -0.001352 0.090599
v 0.058508 -0.002595 0.090032
v 0.058490 -0.003628 0.089137
v 0.058467 -0.004366 0.087988
v 0.058441 -0.004751 0.086677
v 0.058414 -0.004751 0.085311
v 0.058388 -0.004366 0.084001
v 0.058366 -0.003628 0.082852
v 0.058348 -0.002595 0.081957
v 0.058337 -0.001352 0.081390
v 0.061201 0.000000 0.080968
v 0.061228 0.001352 0.081160
v 0.061306 0.002595 0.081722
v 0.061430 0.003628 0.082608
v 0.061589 0.004366 0.083747
v 0.061770 0.004751 0.085045
v 0.061958 0.004751 0.086398
v 0.062139 0.004366 0.087697
v 0.062298 0.003628 0.088835
v 0.062421 0.002595 0.089721
v 0.062500 0.001352 0.090283
v 0.062527 0.000000 0.090476
v 0.062500 -0.001352 0.090283
v 0.062421 -0.002595 0.089721
v 0.062298 -0.003628 0.088835
v 0.062139 -0.004366 0.087697
v 0.061958 -0.004751 0.086398
v 0.061770 -0.004751 0.085045
v 0.061589 -0.004366 0.083747
v 0.061430 -0.003628 0.082608
v 0.061306 -0.002595 0.081722
v 0.061228 -0.001352 0.081160
v 0.064027 0.000000 0.080401
v 0.064077 0.001352 0.080589
v 0.064221 0.002595 0.081138
v 0.064448 0.003628 0.082004
v 0.064740 0.004366 0.083115
v 0.065073 0.004751 0.084383
v 0.065421 0.004751 0.085704
v 0.065754 0.004366 0.086972
v 0.066046 0.003628 0.088084
v 0.066273 0.002595 0.088949
v 0.066418 0.001352 0.089498
v 0.066467 0.000000 0.089686
v 0.066418 -0.001352 0.089498
v 0.066273 -0.002595 0.088949
v 0.066046 -0.003628 0.088084
v 0.065754 -0.004366 0.086972
v 0.065421 -0.004751 0.085704
v 0.065073 -0.004751 0.084383
v 0.064740 -0.004366 0.083115
v 0.064448 -0.003628 0.082004
v 0.064221 -0.002595 0.081138
v 0.064077 -0.001352 0.080589
v 0.066775 0.000000 0.079503
v 0.066846 0.001352 0.079684
v 0.067054 0.002595 0.080212
v 0.067381 0.003628 0.081044
v 0.067802 0.004366 0.082114
v 0.068282 0.004751 0.083334
v 0.068783 0.004751 0.084605
v 0.069263 0.004366 0.085825
v 0.069684 0.003628 0.086894
v 0.070012 0.002595 0.087727
v 0.070220 0.001352 0.088255
v 0.070291 0.000000 0.088436
v 0.070220 -0.001352 0.088255
v 0.070012 -0.002595 0.087727
v 0.069684 -0.003628 0.086894
v 0.069263 -0.004366 0.085825
v 0.068783 -0.004751 0.084605
v 0.068282 -0.004751 0.083334
v 0.067802 -0.004366 0.082114
v 0.067381 -0.003628 0.081044
v 0.067054 -0.002595 0.080212
v 0.066846 -0.001352 0.079684
v 0.069408 0.000000 0.078283
v 0.069500 0.001352 0.078454
v 0.069768 0.002595 0.078954
v 0.070191 0.003628 0.079743
v 0.070735 0.004366 0.080755
v 0.071354 0.004751 0.081911
v 0.072000 0.004751 0.083115
v 0.072620 0.004366 0.084270
v 0.073163 0.003628 0.085282
v 0.073586 0.002595 0.086071
v 0.073855 0.001352 0.086571
v 0.073947 0.000000 0.086742
v 0.073855 -0.001352 0.086571
v 0.073586 -0.002595 0.086071
v 0.073163 -0.003628 0.085282
v 0.072620 -0.004366 0.084270
v 0.072000 -0.004751 0.083115
v 0.071354 -0.004751 0.081911
v 0.070735 -0.004366 0.080755
v 0.070191 -0.003628 0.079743
v 0.069768 -0.002595 0.078954
v 0.069500 -0.001352 0.078454
v 0.071893 0.000000 0.076756
v 0.072004 0.001352 0.076916
v 0.072329 0.002595 0.077381
v 0.072841 0.003628 0.078115
v 0.073499 0.004366 0.079057
v 0.074249 0.004751 0.080133
v 0.075030 0.004751 0.081253
v 0.075780 0.004366 0.082328
v 0.076438 0.003628 0.083271
v 0.076950 0.002595 0.084005
v 0.077275 0.001352 0.084470
v 0.077386 0.000000 0.084629
v 0.077275 -0.001352 0.084470
v 0.076950 -0.002595 0.084005
v 0.076438 -0.003628 0.083271
v 0.075780 -0.004366 0.082328
v 0.075030 -0.004751 0.081253
v 0.074249 -0.004751 0.080133
v 0.073499 -0.004366 0.079057
v 0.072841 -0.003628 0.078115
v 0.072329 -0.002595 0.077381
v 0.072004 -0.001352 0.076916
v 0.074197 0.000000 0.074941
v 0.074326 0.001352 0.075087
v 0.074703 0.002595 0.075512
v 0.075296 0.003628 0.076181
v 0.076058 0.004366 0.077041
v 0.076927 0.004751 0.078023
v 0.077833 0.004751 0.079045
v 0.078703 0.004366 0.080026
v 0.079465 0.003628 0.080887
v 0.080058 0.002595 0.081556
v 0.080434 0.001352 0.081981
v 0.080563 0.000000 0.082127
v 0.080434 -0.001352 0.081981
v 0.080058 -0.002595 0.081556
v 0.079465 -0.003628 0.080887
v 0.078703 -0.004366 0.080026
v 0.077833 -0.004751 0.079045
v 0.076927 -0.004751 0.078023
v 0.076058 -0.004366 0.077041
v 0.075296 -0.003628 0.076181
v 0.074703 -0.002595 0.075512
v 0.074326 -0.001352 0.075087
v 0.076289 0.000000 0.072861
v 0.076434 0.001352 0.072991
v 0.076856 0.002595 0.073369
v 0.077523 0.003628 0.073967
v 0.078379 0.004366 0.074734
v 0.079355 0.004751 0.075609
v 0.080372 0.004751 0.076521
v 0.081348 0.004366 0.077395
v 0.082204 0.003628 0.078163
v 0.082870 0.002595 0.078760
v 0.083293 0.001352 0.079139
v 0.083438 0.000000 0.079268
v 0.083293 -0.001352 0.079139
v 0.082870 -0.002595 0.078760
v 0.082204 -0.003628 0.078163
v 0.081348 -0.004366 0.077395
v 0.080372 -0.004751 0.076521
v 0.079355 -0.004751 0.075609
v 0.078379 -0.004366 0.074734
v 0.077523 -0.003628 0.073967
v 0.076856 -0.002595 0.073369
v 0.076434 -0.001352 0.072991
v 0.078140 0.000000 0.070542
v 0.078299 0.001352 0.070654
v 0.078762 0.002595 0.070982
v 0.079491 0.003628 0.071500
v 0.080429 0.004366 0.072164
v 0.081499 0.004751 0.072922
v 0.082613 0.004751 0.073712
v 0.083683 0.004366 0.074470
v 0.084620 0.003628 0.075135
v 0.085350 0.002595 0.075652
v 0.085813 0.001352 0.075981
v 0.085972 0.000000 0.076093
v 0.085813 -0.001352 0.075981
v 0.085350 -0.002595 0.075652
v 0.084620 -0.003628 0.075135
v 0.083683 -0.004366 0.074470
v 0.082613 -0.004751 0.073712
v 0.081499 -0.004751 0.072922
v 0.080429 -0.004366 0.072164
v 0.079491 -0.003628 0.071500
v 0.078762 -0.002595 0.070982
v 0.078299 -0.001352 0.070654
v 0.079724 0.000000 0.068013
v 0.079895 0.001352 0.068107
v 0.080392 0.002595 0.068381
v 0.081176 0.003628 0.068812
v 0.082182 0.004366 0.069367
v 0.083331 0.004751 0.069999
v 0.084528 0.004751 0.070658
v 0.085676 0.004366 0.071290
v 0.086683 0.003628 0.071844
v 0.087467 0.002595 0.072276
v 0.087964 0.001352 0.072549
v 0.088134 0.000000 0.072643
v 0.087964 -0.001352 0.072549
v 0.087467 -0.002595 0.072276
v 0.086683 -0.003628 0.071844
v 0.085676 -0.004366 0.071290
v 0.084528 -0.004751 0.070658
v 0.083331 -0.004751 0.069999
v 0.082182 -0.004366 0.069367
v 0.081176 -0.003628 0.068812
v 0.080392 -0.002595 0.068381
v 0.079895 -0.001352 0.068107
v 0.081020 0.000000 0.065309
v 0.081200 0.001352 0.065383
v 0.081724 0.002595 0.065600
v 0.082552 0.003628 0.065940
v 0.083615 0.004366 0.066378
v 0.084827 0.004751 0.066877
v 0.086090 0.004751 0.067397
v 0.087302 0.004366 0.067896
v 0.088365 0.003628 0.068334
v 0.089192 0.002595 0.068674
v 0.089717 0.001352 0.068890
v 0.089897 0.000000 0.068965
v 0.089717 -0.001352 0.068890
v 0.089192 -0.002595 0.068674
v 0.088365 -0.003628 0.068334
v 0.087302 -0.004366 0.067896
v 0.086090 -0.004751 0.067397
v 0.084827 -0.004751 0.066877
v 0.083615 -0.004366 0.066378
v 0.082552 -0.003628 0.065940
v 0.081724 -0.002595 0.065600
v 0.081200 -0.001352 0.065383
v 0.082008 0.000000 0.062466
v 0.082195 0.001352 0.062519
v 0.082741 0.002595 0.062675
v 0.083601 0.003628 0.062921
v 0.084706 0.004366 0.063237
v 0.085966 0.004751 0.063598
v 0.087280 0.004751 0.063973
v 0.088540 0.004366 0.064334
v 0.089645 0.003628 0.064650
v 0.090506 0.002595 0.064896
v 0.091051 0.001352 0.065052
v 0.091238 0.000000 0.065105
v 0.091051 -0.001352 0.065052
v 0.090506 -0.002595 0.064896
v 0.089645 -0.003628 0.064650
v 0.088540 -0.004366 0.064334
v 0.087280 -0.004751 0.063973
v 0.085966 -0.004751 0.063598
v 0.084706 -0.004366 0.063237
v 0.083601 -0.003628 0.062921
v 0.082741 -0.002595 0.062675
v 0.082195 -0.001352 0.062519
v 0.082675 0.000000 0.059520
v 0.082867 0.001352 0.059553
v 0.083427 0.002595 0.059647
v 0.084309 0.003628 0.059796
v 0.085442 0.004366 0.059987
v 0.086735 0.004751 0.060205
v 0.088082 0.004751 0.060432
v 0.089375 0.004366 0.060649
v 0.090508 0.003628 0.060840
v 0.091390 0.002595 0.060989
v 0.091950 0.001352 0.061083
v 0.092142 0.000000 0.061116
v 0.091950 -0.001352 0.061083
v 0.091390 -0.002595 0.060989
v 0.090508 -0.003628 0.060840
v 0.089375 -0.004366 0.060649
v 0.088082 -0.004751 0.060432
v 0.086735 -0.004751 0.060205
v 0.085442 -0.004366 0.059987
v 0.084309 -0.003628 0.059796
v 0.083427 -0.002595 0.059647
v 0.082867 -0.001352 0.059553
v 0.083011 0.000000 0.056514
v 0.083205 0.001352 0.056525
v 0.083772 0.002595 0.056556
v 0.084665 0.003628 0.056606
v 0.085813 0.004366 0.056670
v 0.087122 0.004751 0.056743
v 0.088486 0.004751 0.056819
v 0.089795 0.004366 0.056891
v 0.090942 0.003628 0.056955
v 0.091835 0.002595 0.057005
v 0.092402 0.001352 0.057037
v 0.092596 0.000000 0.057047
v 0.092402 -0.001352 0.057037
v 0.091835 -0.002595 0.057005
v 0.090942 -0.003628 0.056955
v 0.089795 -0.004366 0.056891
v 0.088486 -0.004751 0.056819
v 0.087122 -0.004751 0.056743
v 0.085813 -0.004366 0.056670
v 0.084665 -0.003628 0.056606
v 0.083772 -0.002595 0.056556
v 0.083205 -0.001352 0.056525
v 0.083011 0.000000 0.053486
v 0.083205 0.001352 0.053475
v 0.083772 0.002595 0.053444
v 0.084665 0.003628 0.053394
v 0.085813 0.004366 0.053330
v 0.087122 0.004751 0.053257
v 0.088486 0.004751 0.053181
v 0.089795 0.004366 0.053109
v 0.090942 0.003628 0.053045
v 0.091835 0.002595 0.052995
v 0.092402 0.001352 0.052963
v 0.092596 0.000000 0.052953
v 0.092402 -0.001352 0.052963
v 0.091835 -0.002595 0.052995
v 0.090942 -0.003628 0.053045
v 0.089795 -0.004366 0.053109
v 0.088486 -0.004751 0.053181
v 0.087122 -0.004751 0.053257
v 0.085813 -0.004366 0.053330
v 0.084665 -0.003628 0.053394
v 0.083772 -0.002595 0.053444
v 0.083205 -0.001352 0.053475
v 0.082675 0.000000 0.050480
v 0.082867 0.001352 0.050447
v 0.083427 0.002595 0.050353
v 0.084309 0.003628 0.050204
v 0.085442 0.004366 0.050013
v 0.086735 0.004751 0.049795
v 0.088082 0.004751 0.049568
v 0.089375 0.004366 0.049351
v 0.090508 0.003628 0.049160
v 0.091390 0.002595 0.049011
v 0.091950 0.001352 0.048917
v 0.092142 0.000000 0.048884
v 0.091950 -0.001352 0.048917
v 0.091390 -0.002595 0.049011
v 0.090508 -0.003628 0.049160
v 0.089375 -0.004366 0.049351
v 0.088082 -0.004751 0.049568
v 0.086735 -0.004751 0.049795
v 0.085442 -0.004366 0.050013
v 0.084309 -0.003628 0.050204
v 0.083427 -0.002595 0.050353
v 0.082867 -0.001352 0.050447
v 0.082008 0.000000 0.047534
v 0.082195 0.001352 0.047481
v 0.082741 0.002595 0.047325
v 0.083601 0.003628 0.047079
v 0.084706 0.004366 0.046763
v 0.085966 0.004751 0.046402
v 0.087280 0.004751 0.046027
v 0.088540 0.004366 0.045666
v 0.089645 0.003628 0.045350
v 0.090506 0.002595 0.045104
v 0.091051 0.001352 0.044948
v 0.091238 0.000000 0.044895
v 0.091051 -0.001352 0.044948
v 0.090506 -0.002595 0.045104
v 0.089645 -0.003628 0.045350
v 0.088540 -0.004366 0.045666
v 0.087280 -0.004751 0.046027
v 0.085966 -0.004751 0.046402
v 0.084706 -0.004366 0.046763
v 0.083601 -0.003628 0.047079
v 0.082741 -0.002595 0.047325
v 0.082195 -0.001352 0.047481
v 0.081020 0.000000 0.044691
v 0.081200 0.001352 0.044617
v 0.081724 0.002595 0.044400
v 0.082552 0.003628 0.044060
v 0.083615 0.004366 0.043622
v 0.084827 0.004751 0.043123
v 0.086090 0.004751 0.042603
v 0.087302 0.004366 0.042104
v 0.088365 0.003628 0.041666
v 0.089192 0.002595 0.041326
v 0.089717 0.001352 0.041110
v 0.089897 0.000000 0.041035
v 0.089717 -0.001352 0.041110
v 0.089192 -0.002595 0.041326
v 0.088365 -0.003628 0.041666
v 0.087302 -0.004366 0.042104
v 0.086090 -0.004751 0.042603
v 0.084827 -0.004751 0.043123
v 0.083615 -0.004366 0.043622
v 0.082552 -0.003628 0.044060
v 0.081724 -0.002595 0.044400
v 0.081200 -0.001352 0.044617
v 0.079724 0.000000 0.041987
v 0.079895 0.001352 0.041893
v 0.080392 0.002595 0.041619
v 0.081176 0.003628 0.041188
v 0.082182 0.004366 0.040633
v 0.083331 0.004751 0.040001
v 0.084528 0.004751 0.039342
v 0.085676 0.004366 0.038710
v 0.086683 0.003628 0.038156
v 0.087467 0.002595 0.037724
v 0.087964 0.001352 0.037451
v 0.088134 0.000000 0.037357
v 0.087964 -0.001352 0.037451
v 0.087467 -0.002595 0.037724
v 0.086683 -0.003628 0.038156
v 0.085676 -0.004366 0.038710
v 0.084528 -0.004751 0.039342
v 0.083331 -0.004751 0.040001
v 0.082182 -0.004366 0.040633
v 0.081176 -0.003628 0.041188
v 0.080392 -0.002595 0.041619
v 0.079895 -0.001352 0.041893
v 0.078140 0.000000 0.039458
v 0.078299 0.001352 0.039346
v 0.078762 0.002595 0.039018
v 0.079491 0.003628 0.038500
v 0.080429 0.004366 0.037836
v 0.081499 0.004751 0.037078
v 0.082613 0.004751 0.036288
v 0.083683 0.004366 0.035530
v 0.084620 0.003628 0.034865
v 0.085350 0.002595 0.034348
v 0.085813 0.001352 0.034019
v 0.085972 0.000000 0.033907
v 0.085813 -0.001352 0.034019
v 0.085350 -0.002595 0.034348
v 0.084620 -0.003628 0.034865
v 0.083683 -0.004366 0.035530
v 0.082613 -0.004751 0.036288
v 0.081499 -0.004751 0.037078
v 0.080429 -0.004366 0.037836
v 0.079491 -0.003628 0.038500
v 0.078762 -0.002595 0.039018
v 0.078299 -0.001352 0.039346
v 0.076289 0.000000 0.037139
v 0.076434 0.001352 0.037009
v 0.076856 0.002595 0.036631
v 0.077523 0.003628 0.036033
v 0.078379 0.004366 0.035266
v 0.079355 0.004751 0.034391
v 0.080372 0.004751 0.033479
v 0.081348 0.004366 0.032605
v 0.082204 0.003628 0.031837
v 0.082870 0.002595 0.031240
v 0.083293 0.001352 0.030861
v 0.083438 0.000000 0.030732
v 0.083293 -0.001352 0.030861
v 0.082870 -0.002595 0.031240
v 0.082204 -0.003628 0.031837
v 0.081348 -0.004366 0.032605
v 0.080372 -0.004751 0.033479
v 0.079355 -0.004751 0.034391
v 0.078379 -0.004366 0.035266
v 0.077523 -0.003628 0.036033
v 0.076856 -0.002595 0.036631
v 0.076434 -0.001352 0.037009
v 0.074197 0.000000 0.035059
v 0.074326 0.001352 0.034913
v 0.074703 0.002595 0.034488
v 0.075296 0.003628 0.033819
v 0.076058 0.004366 0.032959
v 0.076927 0.004751 0.031977
v 0.077833 0.004751 0.030955
v 0.078703 0.004366 0.029974
v 0.079465 0.003628 0.029113
v 0.080058 0.002595 0.028444
v 0.080434 0.001352 0.028019
v 0.080563 0.000000 0.027873
v 0.080434 -0.001352 0.028019
v 0.080058 -0.002595 0.028444
v 0.079465 -0.003628 0.029113
v 0.078703 -0.004366 0.029974
v 0.077833 -0.004751 0.030955
v 0.076927 -0.004751 0.031977
v 0.076058 -0.004366 0.032959
v 0.075296 -0.003628 0.033819
v 0.074703 -0.002595 0.034488
v 0.074326 -0.001352 0.034913
v 0.071893 0.000000 0.033244
v 0.072004 0.001352 0.033084
v 0.072329 0.002595 0.032619
v 0.072841 0.003628 0.031885
v 0.073499 0.004366 0.030943
v 0.074249 0.004751 0.029867
v 0.075030 0.004751 0.028747
v 0.075780 0.004366 0.027672
v 0.076438 0.003628 0.026729
v 0.076950 0.002595 0.025995
v 0.077275 0.001352 0.025530
v 0.077386 0.000000 0.025371
v 0.077275 -0.001352 0.025530
v 0.076950 -0.002595 0.025995
v 0.076438 -0.003628 0.026729
v 0.075780 -0.004366 0.027672
v 0.075030 -0.004751 0.028747
v 0.074249 -0.004751 0.029867
v 0.073499 -0.004366 0.030943
v 0.072841 -0.003628 0.031885
v 0.072329 -0.002595 0.032619
v 0.072004 -0.001352 0.033084
v 0.069408 0.000000 0.031717
v 0.069500 0.001352 0.031546
v 0.069768 0.002595 0.031046
v 0.070191 0.003628 0.030257
v 0.070735 0.004366 0.029245
v 0.071354 0.004751 0.028089
v 0.072000 0.004751 0.026885
v 0.072620 0.004366 0.025730
v 0.073163 0.003628 0.024718
v 0.073586 0.002595 0.023929
v 0.073855 0.001352 0.023429
v 0.073947 0.000000 0.023258
v 0.073855 -0.001352 0.023429
v 0.073586 -0.002595 0.023929
v 0.073163 -0.003628 0.024718
v 0.072620 -0.004366 0.025730
v 0.072000 -0.004751 0.026885
v 0.071354 -0.004751 0.028089
v 0.070735 -0.004366 0.029245
v 0.070191 -0.003628 0.030257
v 0.069768 -0.002595 0.031046
v 0.069500 -0.001352 0.031546
v 0.066775 0.000000 0.030497
v 0.066846 0.001352 0.030316
v 0.067054 0.002595 0.029788
v 0.067381 0.003628 0.028956
v 0.067802 0.004366 0.027886
v 0.068282 0.004751 0.026666
v 0.068783 0.004751 0.025395
v 0.069263 0.004366 0.024175
v 0.069684 0.003628 0.023106
v 0.070012 0.002595 0.022273
v 0.070220 0.001352 0.021745
v 0.070291 0.000000 0.021564
v 0.070220 -0.001352 0.021745
v 0.070012 -0.002595 0.022273
v 0.069684 -0.003628 0.023106
v 0.069263 -0.004366 0.024175
v 0.068783 -0.004751 0.025395
v 0.068282 -0.004751 0.026666
v 0.067802 -0.004366 0.027886
v 0.067381 -0.003628 0.028956
v 0.067054 -0.002595 0.029788
v 0.066846 -0.001352 0.030316
v 0.064027 0.000000 0.029599
v 0.064077 0.001352 0.029411
v 0.064221 0.002595 0.028862
v 0.064448 0.003628 0.027996
v 0.064740 0.004366 0.026885
v 0.065073 0.004751 0.025617
v 0.065421 0.004751 0.024296
v 0.065754 0.004366 0.023028
v 0.066046 0.003628 0.021916
v 0.066273 0.002595 0.021051
v 0.066418 0.001352 0.020502
v 0.066467 0.000000 0.020314
v 0.066418 -0.001352 0.020502
v 0.066273 -0.002595 0.021051
v 0.066046 -0.003628 0.021916
v 0.065754 -0.004366 0.023028
v 0.065421 -0.004751 0.024296
v 0.065073 -0.004751 0.025617
v 0.064740 -0.004366 0.026885
v 0.064448 -0.003628 0.027996
v 0.064221 -0.002595 0.028862
v 0.064077 -0.001352 0.029411
v 0.061201 0.000000 0.029032
v 0.061228 0.001352 0.028840
v 0.061306 0.002595 0.028278
v 0.061430 0.003628 0.027392
v 0.061589 0.004366 0.026253
v 0.061770 0.004751 0.024955
v 0.061958 0.004751 0.023602
v 0.062139 0.004366 0.022303
v 0.062298 0.003628 0.021165
v 0.062421 0.002595 0.020279
v 0.062500 0.001352 0.019717
v 0.062527 0.000000 0.019524
v 0.062500 -0.001352 0.019717
v 0.062421 -0.002595 0.020279
v 0.062298 -0.003628 0.021165
v 0.062139 -0.004366 0.022303
v 0.061958 -0.004751 0.023602
v 0.061770 -0.004751 0.024955
v 0.061589 -0.004366 0.026253
v 0.061430 -0.003628 0.027392
v 0.061306 -0.002595 0.028278
v 0.061228 -0.001352 0.028840
v 0.058333 0.000000 0.028805
v 0.058337 0.001352 0.028610
v 0.058348 0.002595 0.028043
v 0.058366 0.003628 0.027148
v 0.058388 0.004366 0.025999
v 0.058414 0.004751 0.024689
v 0.058441 0.004751 0.023323
v 0.058467 0.004366 0.022012
v 0.058490 0.003628 0.020863
v 0.058508 0.002595 0.019968
v 0.058519 0.001352 0.019401
v 0.058523 0.000000 0.019207
v 0.058519 -0.001352 0.019401
v 0.058508 -0.002595 0.019968
v 0.058490 -0.003628 0.020863
v 0.058467 -0.004366 0.022012
v 0.058441 -0.004751 0.023323
v 0.058414 -0.004751 0.024689
v 0.058388 -0.004366 0.025999
v 0.058366 -0.003628 0.027148
v 0.058348 -0.002595 0.028043
v 0.058337 -0.001352 0.028610
v 0.055458 0.000000 0.028919
v 0.055439 0.001352 0.028725
v 0.055383 0.002595 0.028160
v 0.055295 0.003628 0.027270
v 0.055181 0.004366 0.026126
v 0.055052 0.004751 0.024822
v 0.054917 0.004751 0.023462
v 0.054787 0.004366 0.022158
v 0.054674 0.003628 0.021014
v 0.054585 0.002595 0.020124
v 0.054529 0.001352 0.019559
v 0.054510 0.000000 0.019366
v 0.054529 -0.001352 0.019559
v 0.054585 -0.002595 0.020124
v 0.054674 -0.003628 0.021014
v 0.054787 -0.004366 0.022158
v 0.054917 -0.004751 0.023462
v 0.055052 -0.004751 0.024822
v 0.055181 -0.004366 0.026126
v 0.055295 -0.003628 0.027270
v 0.055383 -0.002595 0.028160
v 0.055439 -0.001352 0.028725
v 0.052614 0.000000 0.029373
v 0.052572 0.001352 0.029183
v 0.052450 0.002595 0.028629
v 0.052257 0.003628 0.027755
v 0.052009 0.004366 0.026633
v 0.051726 0.004751 0.025353
v 0.051431 0.004751 0.024019
v 0.051148 0.004366 0.022739
v 0.050900 0.003628 0.021616
v 0.050707 0.002595 0.020743
v 0.050584 0.001352 0.020189
v 0.050542 0.000000 0.019999
v 0.050584 -0.001352 0.020189
v 0.050707 -0.002595 0.020743
v 0.050900 -0.003628 0.021616
v 0.051148 -0.004366 0.022739
v 0.051431 -0.004751 0.024019
v 0.051726 -0.004751 0.025353
v 0.052009 -0.004366 0.026633
v 0.052257 -0.003628 0.027755
v 0.052450 -0.002595 0.028629
v 0.052572 -0.001352 0.029183
v 0.049837 0.000000 0.030161
v 0.049773 0.001352 0.029978
v 0.049586 0.002595 0.029442
v 0.049291 0.003628 0.028597
v 0.048912 0.004366 0.027512
v 0.048480 0.004751 0.026274
v 0.048030 0.004751 0.024984
v 0.047598 0.004366 0.023747
v 0.047220 0.003628 0.022661
v 0.046925 0.002595 0.021817
v 0.046738 0.001352 0.021281
v 0.046674 0.000000 0.021097
v 0.046738 -0.001352 0.021281
v 0.046925 -0.002595 0.021817
v 0.047220 -0.003628 0.022661
v 0.047598 -0.004366 0.023747
v 0.048030 -0.004751 0.024984
v 0.048480 -0.004751 0.026274
v 0.048912 -0.004366 0.027512
v 0.049291 -0.003628 0.028597
v 0.049586 -0.002595 0.029442
v 0.049773 -0.001352 0.029978
v 0.047161 0.000000 0.031276
v 0.047076 0.001352 0.031101
v 0.046828 0.002595 0.030591
v 0.046436 0.003628 0.029786
v 0.045932 0.004366 0.028753
v 0.045358 0.004751 0.027575
v 0.044760 0.004751 0.026346
v 0.044186 0.004366 0.025168
v 0.043682 0.003628 0.024135
v 0.043290 0.002595 0.023330
v 0.043042 0.001352 0.022820
v 0.042957 0.000000 0.022645
v 0.043042 -0.001352 0.022820
v 0.043290 -0.002595 0.023330
v 0.043682 -0.003628 0.024135
v 0.044186 -0.004366 0.025168
v 0.044760 -0.004751 0.026346
v 0.045358 -0.004751 0.027575
v 0.045932 -0.004366 0.028753
v 0.046436 -0.003628 0.029786
v 0.046828 -0.002595 0.030591
v 0.047076 -0.001352 0.031101
v 0.044623 0.000000 0.032702
v 0.044518 0.001352 0.032538
v 0.044212 0.002595 0.032061
v 0.043729 0.003628 0.031307
v 0.043108 0.004366 0.030340
v 0.042400 0.004751 0.029237
v 0.041663 0.004751 0.028087
v 0.040955 0.004366 0.026983
v 0.040334 0.003628 0.026016
v 0.039851 0.002595 0.025263
v 0.039545 0.001352 0.024785
v 0.039440 0.000000 0.024621
v 0.039545 -0.001352 0.024785
v 0.039851 -0.002595 0.025263
v 0.040334 -0.003628 0.026016
v 0.040955 -0.004366 0.026983
v 0.041663 -0.004751 0.028087
v 0.042400 -0.004751 0.029237
v 0.043108 -0.004366 0.030340
v 0.043729 -0.003628 0.031307
v 0.044212 -0.002595 0.032061
v 0.044518 -0.001352 0.032538
v 0.042255 0.000000 0.034423
v 0.042132 0.001352 0.034273
v 0.041772 0.002595 0.033834
v 0.041205 0.003628 0.033142
v 0.040477 0.004366 0.032253
v 0.039646 0.004751 0.031239
v 0.038780 0.004751 0.030182
v 0.037949 0.004366 0.029168
v 0.037220 0.003628 0.028279
v 0.036653 0.002595 0.027587
v 0.036294 0.001352 0.027148
v 0.036170 0.000000 0.026998
v 0.036294 -0.001352 0.027148
v 0.036653 -0.002595 0.027587
v 0.037220 -0.003628 0.028279
v 0.037949 -0.004366 0.029168
v 0.038780 -0.004751 0.030182
v 0.039646 -0.004751 0.031239
v 0.040477 -0.004366 0.032253
v 0.041205 -0.003628 0.033142
v 0.041772 -0.002595 0.033834
v 0.042132 -0.001352 0.034273
v 0.039892 0.000000 0.036611
v 0.039760 0.001352 0.036468
v 0.039375 0.002595 0.036050
v 0.038769 0.003628 0.035392
v 0.037991 0.004366 0.034546
v 0.037103 0.004751 0.033582
v 0.036177 0.004751 0.032577
v 0.035289 0.004366 0.031613
v 0.034511 0.003628 0.030767
v 0.033905 0.002595 0.030109
v 0.033520 0.001352 0.029692
v 0.033388 0.000000 0.029549
v 0.033520 -0.001352 0.029692
v 0.033905 -0.002595 0.030109
v 0.034511 -0.003628 0.030767
v 0.035289 -0.004366 0.031613
v 0.036177 -0.004751 0.032577
v 0.037103 -0.004751 0.033582
v 0.037991 -0.004366 0.034546
v 0.038769 -0.003628 0.035392
v 0.039375 -0.002595 0.036050
v 0.039760 -0.001352 0.036468
v 0.036640 0.000000 0.076920
v 0.036640 0.000000 0.033080
f 1 23 24
f 1 24 2
f 2 24 25
f 2 25 3
f 3 25 26
f 3 26 4
f 4 26 27
f 4 27 5
f 5 27 28
f 5 28 6
f 6 28 29
f 6 29 7
f 7 29 30
f 7 30 8
f 8 30 31
f 8 31 9
f 9 31 32
f 9 32 10
f 10 32 33
f 10 33 11
f 11 33 34
f 11 34 12
f 12 34 35
f 12 35 13
f 13 35 36
f 13 36 14
f 14 36 37
f 14 37 15
f 15 37 38
f 15 38 16
f 16 38 39
f 16 39 17
f 17 39 40
f 17 40 18
f 18 40 41
f 18 41 19
f 19 41 42
f 19 42 20
f 20 42 43
f 20 43 21
f 21 43 44
f 21 44 22
f 22 44 23
f 22 23 1
f 23 45 46
f 23 46 24
f 24 46 47
f 24 47 25
f 25 47 48
f 25 48 26
f 26 48 49
f 26 49 27
f 27 49 50
f 27 50 28
f 28 50 51
f 28 51 29
f 29 51 52
f 29 52 30
f 30 52 53
f 30 53 31
f 31 53 54
f 31 54 32
f 32 54 55
f 32 55 33
f 33 55 56
f 33 56 34
f 34 56 57
f 34 57 35
f 35 57 58
f 35 58 36
f 36 58 59
f 36 59 37
f 37 59 60
f 37 60 38
f 38 60 61
f 38 61 39
f 39 61 62
f 39 62 40
f 40 62 63
f 40 63 41
f 41 63 64
f 41 64 42
f 42 64 65
f 42 65 43
f 43 65 66
f 43 66 44
f 44 66 45
f 44 45 23
f 45 67 68
f 45 68 46
f 46 68 69
f 46 69 47
f 47 69 70
f 47 70 48
f 48 70 71
f 48 71 49
f 49 71 72
f 49 72 50
f 50 72 73
f 50 73 51
f 51 73 74
f 51 74 52
f 52 74 75
f 52 75 53
f 53 75 76
f 53 76 54
f 54 76 77
f 54 77 55
f 55 77 78
f 55 78 56
f 56 78 79
f 56 79 57
f 57 79 80
f 57 80 58
f 58 80 81
f 58 81 59
f 59 81 82
f 59 82 60
f 60 82 83
f 60 83 61
f 61 83 84
f 61 84 62
f 62 84 85
f 62 85 63
f 63 85 86
f 63 86 64
f 64 86 87
f 64 87 65
f 65 87 88
f 65 88 66
f 66 88 67
f 66 67 45
f 67 89 90
f 67 90 68
f 68 90 91
f 68 91 69
f 69 91 92
f 69 92 70
f 70 92 93
f 70 93 71
f 71 93 94
f 71 94 72
f 72 94 95
f 72 95 73
f 73 95 96
f 73 96 74
f 74 96 97
f 74 97 75
f 75 97 98
f 75 98 76
f 76 98 99
f 76 99 77
f 77 99 100
f 77 100 78
f 78 100 101
f 78 101 79
f 79 101 102
f 79 102 80
f 80 102 103
f 80 103 81
f 81 103 104
f 81 104 82
f 82 104 105
f 82 105 83
f 83 105 106
f 83 106 84
f 84 106 107
f 84 107 85
f 85 107 108
f 85 108 86
f 86 108 109
f 86 109 87
f 87 109 110
f 87 110 88
f 88 110 89
f 88 89 67
f 89 111 112
f 89 112 90
f 90 112 113
f 90 113 91
f 91 113 114
f 91 114 92
f 92 114 115
f 92 115 93
f 93 115 116
f 93 116 94
f 94 116 117
f 94 117 95
f 95 117 118
f 95 118 96
f 96 118 119
f 96 119 97
f 97 119 120
f 97 120 98
f 98 120 121
f 98 121 99
f 99 121 122
f 99 122 100
f 100 122 123
f 100 123 101
f 101 123 124
f 101 124 102
f 102 124 125
f 102 125 103
f 103 125 126
f 103 126 104
f 104 126 127
f 104 127 105
f 105 127 128
f 105 128 106
f 106 128 129
f 106 129 107
f 107 129 130
f 107 130 108
f 108 130 131
f 108 131 109
f 109 131 132
f 109 132 110
f 110 132 111
f 110 111 89
f 111 133 134
f 111 134 112
f 112 134 135
f 112 135 113
f 113 135 136
f 113 136 114
f 114 136 137
f 114 137 115
f 115 137 138
f 115 138 116
f 116 138 139
f 116 139 117
f 117 139 140
f 117 140 118
f 118 140 141
f 118 141 119
f 119 141 142
f 119 142 120
f 120 142 143
f 120 143 121
f 121 143 144
f 121 144 122
f 122 144 145
f 122 145 123
f 123 145 146
f 123 146 124
f 124 146 147
f 124 147 125
f 125 147 148
f 125 148 126
f 126 148 149
f 126 149 127
f 127 149 150
f 127 150 128
f 128 150 151
f 128 151 129
f 129 151 152
f 129 152 130
f 130 152 153
f 130 153 131
f 131 153 154
f 131 154 132
f 132 154 133
f 132 133 111
f 133 155 156
f 133 156 134
f 134 156 157
f 134 157 135
f 135 157 158
f 135 158 136
f 136 158 159
f 136 159 137
f 137 159 160
f 137 160 138
f 138 160 161
f 138 161 139
f 139 161 162
f 139 162 140
f 140 162 163
f 140 163 141
f 141 163 164
f 141 164 142
f 142 164 165
f 142 165 143
f 143 165 166
f 143 166 144
f 144 166 167
f 144 167 145
f 145 167 168
f 145 168 146
f 146 168 169
f 146 169 147
f 147 169 170
f 147 170 148
f 148 170 171
f 148 171 149
f 149 171 172
f 149 172 150
f 150 172 173
f 150 173 151
f 151 173 174
f 151 174 152
f 152 174 175
f 152 175 153
f 153 175 176
f 153 176 154
f 154 176 155
f 154 155 133
f 155 177 178
f 155 178 156
f 156 178 179
f 156 179 157
f 157 179 180
f 157 180 158
f 158 180 181
f 158 181 159
f 159 181 182
f 159 182 160
f 160 182 183
f 160 183 161
f 161 183 184
f 161 184 162
f 162 184 185
f 162 185 163
f 163 185 186
f 163 186 164
f 164 186 187
f 164 187 165
f 165 187 188
f 165 188 166
f 166 188 189
f 166 189 167
f 167 189 190
f 167 190 168
f 168 190 191
f 168 191 169
f 169 191 192
f 169 192 170
f 170 192 193
f 170 193 171
f 171 193 194
f 171 194 172
f 172 194 195
f 172 195 173
f 173 195 196
f 173 196 174
f 174 196 197
f 174 197 175
f 175 197 198
f 175 198 176
f 176 198 177
f 176 177 155
f 177 199 200
f 177 200 178
f 178 200 201
f 178 201 179
f 179 201 202
f 179 202 180
f 180 202 203
f 180 203 181
f 181 203 204
f 181 204 182
f 182 204 205
f 182 205 183
f 183 205 206
f 183 206 184
f 184 206 207
f 184 207 185
f 185 207 208
f 185 208 186
f 186 208 209
f 186 209 187
f 187 209 210
f 187 210 188
f 188 210 211
f 188 211 189
f 189 211 212
f 189 212 190
f 190 212 213
f 190 213 191
f 191 213 214
f 191 214 192
f 192 214 215
f 192 215 193
f 193 215 216
f 193 216 194
f 194 216 217
f 194 217 195
f 195 217 218
f 195 218 196
f 196 218 219
f 196 219 197
f 197 219 220
f 197 220 198
f 198 220 199
f 198 199 177
f 199 221 222
f 199 222 200
f 200 222 223
f 200 223 201
f 201 223 224
f 201 224 202
f 202 224 225
f 202 225 203
f 203 225 226
f 203 226 204
f 204 226 227
f 204 227 205
f 205 227 228
f 205 228 206
f 206 228 229
f 206 229 207
f 207 229 230
f 207 230 208
f 208 230 231
f 208 231 209
f 209 231 232
f 209 232 210
f 210 232 233
f 210 233 211
f 211 233 234
f 211 234 212
f 212 234 235
f 212 235 213
f 213 235 236
f 213 236 214
f 214 236 237
f 214 237 215
f 215 237 238
f 215 238 216
f 216 238 239
f 216 239 217
f 217 239 240
f 217 240 218
f 218 240 241
f 218 241 219
f 219 241 242
f 219 242 220
f 220 242 221
f 220 221 199
f 221 243 244
f 221 244 222
f 222 244 245
f 222 245 223
f 223 245 246
f 223 246 224
f 224 246 247
f 224 247 225
f 225 247 248
f 225 248 226
f 226 248 249
f 226 249 227
f 227 249 250
f 227 250 228
f 228 250 251
f 228 251 229
f 229 251 252
f 229 252 230
f 230 252 253
f 230 253 231
f 231 253 254
f 231 254 232
f 232 254 255
f 232 255 233
f 233 255 256
f 233 256 234
f 234 256 257
f 234 257 235
f 235 257 258
f 235 258 236
f 236 258 259
f 236 259 237
f 237 259 260
f 237 260 238
f 238 260 261
f 238 261 239
f 239 261 262
f 239 262 240
f 240 262 263
f 240 263 241
f 241 263 264
f 241 264 242
f 242 264 243
f 242 243 221
f 243 265 266
f 243 266 244
f 244 266 267
f 244 267 245
f 245 267 268
f 245 268 246
f 246 268 269
f 246 269 247
f 247 269 270
f 247 270 248
f 248 270 271
f 248 271 249
f 249 271 272
f 249 272 250
f 250 272 273
f 250 273 251
f 251 273 274
f 251 274 252
f 252 274 275
f 252 275 253
f 253 275 276
f 253 276 254
f 254 276 277
f 254 277 255
f 255 277 278
f 255 278 256
f 256 278 279
f 256 279 257
f 257 279 280
f 257 280 258
f 258 280 281
f 258 281 259
f 259 281 282
f 259 282 260
f 260 282 283
f 260 283 261
f 261 283 284
f 261 284 262
f 262 284 285
f 262 285 263
f 263 285 286
f 263 286 264
f 264 286 265
f 264 265 243
f 265 287 288
f 265 288 266
f 266 288 289
f 266 289 267
f 267 289 290
f 267 290 268
f 268 290 291
f 268 291 269
f 269 291 292
f 269 292 270
f 270 292 293
f 270 293 271
f 271 293 294
f 271 294 272
f 272 294 295
f 272 295 273
f 273 295 296
f 273 296 274
f 274 296 297
f 274 297 275
f 275 297 298
f 275 298 276
f 276 298 299
f 276 299 277
f 277 299 300
f 277 300 278
f 278 300 301
f 278 301 279
f 279 301 302
f 279 302 280
f 280 302 303
f 280 303 281
f 281 303 304
f 281 304 282
f 282 304 305
f 282 305 283
f 283 305 306
f 283 306 284
f 284 306 307
f 284 307 285
f 285 307 308
f 285 308 286
f 286 308 287
f 286 287 265
f 287 309 310
f 287 310 288
f 288 310 311
f 288 311 289
f 289 311 312
f 289 312 290
f 290 312 313
f 290 313 291
f 291 313 314
f 291 314 292
f 292 314 315
f 292 315 293
f 293 315 316
f 293 316 294
f 294 316 317
f 294 317 295
f 295 317 318
f 295 318 296
f 296 318 319
f 296 319 297
f 297 319 320
f 297 320 298
f 298 320 321
f 298 321 299
f 299 321 322
f 299 322 300
f 300 322 323
f 300 323 301
f 301 323 324
f 301 324 302
f 302 324 325
f 302 325 303
f 303 325 326
f 303 326 304
f 304 326 327
f 304 327 305
f 305 327 328
f 305 328 306
f 306 328 329
f 306 329 307
f 307 329 330
f 307 330 308
f 308 330 309
f 308 309 287
f 309 331 332
f 309 332 310
f 310 332 333
f 310 333 311
f 311 333 334
f 311 334 312
f 312 334 335
f 312 335 313
f 313 335 336
f 313 336 314
f 314 336 337
f 314 337 315
f 315 337 338
f 315 338 316
f 316 338 339
f 316 339 317
f 317 339 340
f 317 340 318
f 318 340 341
f 318 341 319
f 319 341 342
f 319 342 320
f 320 342 343
f 320 343 321
f 321 343 344
f 321 344 322
f 322 344 345
f 322 345 323
f 323 345 346
f 323 346 324
f 324 346 347
f 324 347 325
f 325 347 348
f 325 348 326
f 326 348 349
f 326 349 327
f 327 349 350
f 327 350 328
f 328 350 351
f 328 351 329
f 329 351 352
f 329 352 330
f 330 352 331
f 330 331 309
f 331 353 354
f 331 354 332
f 332 354 355
f 332 355 333
f 333 355 356
f 333 356 334
f 334 356 357
f 334 357 335
f 335 357 358
f 335 358 336
f 336 358 359
f 336 359 337
f 337 359 360
f 337 360 338
f 338 360 361
f 338 361 339
f 339 361 362
f 339 362 340
f 340 362 363
f 340 363 341
f 341 363 364
f 341 364 342
f 342 364 365
f 342 365 343
f 343 365 366
f 343 366 344
f 344 366 367
f 344 367 345
f 345 367 368
f 345 368 346
f 346 368 369
f 346 369 347
f 347 369 370
f 347 370 348
f 348 370 371
f 348 371 349
f 349 371 372
f 349 372 350
f 350 372 373
f 350 373 351
f 351 373 374
f 351 374 352
f 352 374 353
f 352 353 331
f 353 375 376
f 353 376 354
f 354 376 377
f 354 377 355
f 355 377 378
f 355 378 356
f 356 378 379
f 356 379 357
f 357 379 380
f 357 380 358
f 358 380 381
f 358 381 359
f 359 381 382
f 359 382 360
f 360 382 383
f 360 383 361
f 361 383 384
f 361 384 362
f 362 384 385
f 362 385 363
f 363 385 386
f 363 386 364
f 364 386 387
f 364 387 365
f 365 387 388
f 365 388 366
f 366 388 389
f 366 389 367
f 367 389 390
f 367 390 368
f 368 390 391
f 368 391 369
f 369 391 392
f 369 392 370
f 370 392 393
f 370 393 371
f 371 393 394
f 371 394 372
f 372 394 395
f 372 395 373
f 373 395 396
f 373 396 374
f 374 396 375
f 374 375 353
f 375 397 398
f 375 398 376
f 376 398 399
f 376 399 377
f 377 399 400
f 377 400 378
f 378 400 401
f 378 401 379
f 379 401 402
f 379 402 380
f 380 402 403
f 380 403 381
f 381 403 404
f 381 404 382
f 382 404 405
f 382 405 383
f 383 405 406
f 383 406 384
f 384 406 407
f 384 407 385
f 385 407 408
f 385 408 386
f 386 408 409
f 386 409 387
f 387 409 410
f 387 410 388
f 388 410 411
f 388 411 389
f 389 411 412
f 389 412 390
f 390 412 413
f 390 413 391
f 391 413 414
f 391 414 392
f 392 414 415
f 392 415 393
f 393 415 416
f 393 416 394
f 394 416 417
f 394 417 395
f 395 417 418
f 395 418 396
f 396 418 397
f 396 397 375
f 397 419 420
f 397 420 398
f 398 420 421
f 398 421 399
f 399 421 422
f 399 422 400
f 400 422 423
f 400 423 401
f 401 423 424
f 401 424 402
f 402 424 425
f 402 425 403
f 403 425 426
f 403 426 404
f 404 426 427
f 404 427 405
f 405 427 428
f 405 428 406
f 406 428 429
f 406 429 407
f 407 429 430
f 407 430 408
f 408 430 431
f 408 431 409
f 409 431 432
f 409 432 410
f 410 432 433
f 410 433 411
f 411 433 434
f 411 434 412
f 412 434 435
f 412 435 413
f 413 435 436
f 413 436 414
f 414 436 437
f 414 437 415
f 415 437 438
f 415 438 416
f 416 438 439
f 416 439 417
f 417 439 440
f 417 440 418
f 418 440 419
f 418 419 397
f 419 441 442
f 419 442 420
f 420 442 443
f 420 443 421
f 421 443 444
f 421 444 422
f 422 444 445
f 422 445 423
f 423 445 446
f 423 446 424
f 424 446 447
f 424 447 425
f 425 447 448
f 425 448 426
f 426 448 449
f 426 449 427
f 427 449 450
f 427 450 428
f 428 450 451
f 428 451 429
f 429 451 452
f 429 452 430
f 430 452 453
f 430 453 431
f 431 453 454
f 431 454 432
f 432 454 455
f 432 455 433
f 433 455 456
f 433 456 434
f 434 456 457
f 434 457 435
f 435 457 458
f 435 458 436
f 436 458 459
f 436 459 437
f 437 459 460
f 437 460 438
f 438 460 461
f 438 461 439
f 439 461 462
f 439 462 440
f 440 462 441
f 440 441 419
f 441 463 464
f 441 464 442
f 442 464 465
f 442 465 443
f 443 465 466
f 443 466 444
f 444 466 467
f 444 467 445
f 445 467 468
f 445 468 446
f 446 468 469
f 446 469 447
f 447 469 470
f 447 470 448
f 448 470 471
f 448 471 449
f 449 471 472
f 449 472 450
f 450 472 473
f 450 473 451
f 451 473 474
f 451 474 452
f 452 474 475
f 452 475 453
f 453 475 476
f 453 476 454
f 454 476 477
f 454 477 455
f 455 477 478
f 455 478 456
f 456 478 479
f 456 479 457
f 457 479 480
f 457 480 458
f 458 480 481
f 458 481 459
f 459 481 482
f 459 482 460
f 460 482 483
f 460 483 461
f 461 483 484
f 461 484 462
f 462 484 463
f 462 463 441
f 463 485 486
f 463 486 464
f 464 486 487
f 464 487 465
f 465 487 488
f 465 488 466
f 466 488 489
f 466 489 467
f 467 489 490
f 467 490 468
f 468 490 491
f 468 491 469
f 469 491 492
f 469 492 470
f 470 492 493
f 470 493 471
f 471 493 494
f 471 494 472
f 472 494 495
f 472 495 473
f 473 495 496
f 473 496 474
f 474 496 497
f 474 497 475
f 475 497 498
f 475 498 476
f 476 498 499
f 476 499 477
f 477 499 500
f 477 500 478
f 478 500 501
f 478 501 479
f 479 501 502
f 479 502 480
f 480 502 503
f 480 503 481
f 481 503 504
f 481 504 482
f 482 504 505
f 482 505 483
f 483 505 506
f 483 506 484
f 484 506 485
f 484 485 463
f 485 507 508
f 485 508 486
f 486 508 509
f 486 509 487
f 487 509 510
f 487 510 488
f 488 510 511
f 488 511 489
f 489 511 512
f 489 512 490
f 490 512 513
f 490 513 491
f 491 513 514
f 491 514 492
f 492 514 515
f 492 515 493
f 493 515 516
f 493 516 494
f 494 516 517
f 494 517 495
f 495 517 518
f 495 518 496
f 496 518 519
f 496 519 497
f 497 519 520
f 497 520 498
f 498 520 521
f 498 521 499
f 499 521 522
f 499 522 500
f 500 522 523
f 500 523 501
f 501 523 524
f 501 524 502
f 502 524 525
f 502 525 503
f 503 525 526
f 503 526 504
f 504 526 527
f 504 527 505
f 505 527 528
f 505 528 506
f 506 528 507
f 506 507 485
f 507 529 530
f 507 530 508
f 508 530 531
f 508 531 509
f 509 531 532
f 509 532 510
f 510 532 533
f 510 533 511
f 511 533 534
f 511 534 512
f 512 534 535
f 512 535 513
f 513 535 536
f 513 536 514
f 514 536 537
f 514 537 515
f 515 537 538
f 515 538 516
f 516 538 539
f 516 539 517
f 517 539 540
f 517 540 518
f 518 540 541
f 518 541 519
f 519 541 542
f 519 542 520
f 520 542 543
f 520 543 521
f 521 543 544
f 521 544 522
f 522 544 545
f 522 545 523
f 523 545 546
f 523 546 524
f 524 546 547
f 524 547 525
f 525 547 548
f 525 548 526
f 526 548 549
f 526 549 527
f 527 549 550
f 527 550 528
f 528 550 529
f 528 529 507
f 529 551 552
f 529 552 530
f 530 552 553
f 530 553 531
f 531 553 554
f 531 554 532
f 532 554 555
f 532 555 533
f 533 555 556
f 533 556 534
f 534 556 557
f 534 557 535
f 535 557 558
f 535 558 536
f 536 558 559
f 536 559 537
f 537 559 560
f 537 560 538
f 538 560 561
f 538 561 539
f 539 561 562
f 539 562 540
f 540 562 563
f 540 563 541
f 541 563 564
f 541 564 542
f 542 564 565
f 542 565 543
f 543 565 566
f 543 566 544
f 544 566 567
f 544 567 545
f 545 567 568
f 545 568 546
f 546 568 569
f 546 569 547
f 547 569 570
f 547 570 548
f 548 570 571
f 548 571 549
f 549 571 572
f 549 572 550
f 550 572 551
f 550 551 529
f 551 573 574
f 551 574 552
f 552 574 575
f 552 575 553
f 553 575 576
f 553 576 554
f 554 576 577
f 554 577 555
f 555 577 578
f 555 578 556
f 556 578 579
f 556 579 557
f 557 579 580
f 557 580 558
f 558 580 581
f 558 581 559
f 559 581 582
f 559 582 560
f 560 582 583
f 560 583 561
f 561 583 584
f 561 584 562
f 562 584 585
f 562 585 563
f 563 585 586
f 563 586 564
f 564 586 587
f 564 587 565
f 565 587 588
f 565 588 566
f 566 588 589
f 566 589 567
f 567 589 590
f 567 590 568
f 568 590 591
f 568 591 569
f 569 591 592
f 569 592 570
f 570 592 593
f 570 593 571
f 571 593 594
f 571 594 572
f 572 594 573
f 572 573 551
f 573 595 596
f 573 596 574
f 574 596 597
f 574 597 575
f 575 597 598
f 575 598 576
f 576 598 599
f 576 599 577
f 577 599 600
f 577 600 578
f 578 600 601
f 578 601 579
f 579 601 602
f 579 602 580
f 580 602 603
f 580 603 581
f 581 603 604
f 581 604 582
f 582 604 605
f 582 605 583
f 583 605 606
f 583 606 584
f 584 606 607
f 584 607 585
f 585 607 608
f 585 608 586
f 586 608 609
f 586 609 587
f 587 609 610
f 587 610 588
f 588 610 611
f 588 611 589
f 589 611 612
f 589 612 590
f 590 612 613
f 590 613 591
f 591 613 614
f 591 614 592
f 592 614 615
f 592 615 593
f 593 615 616
f 593 616 594
f 594 616 595
f 594 595 573
f 595 617 618
f 595 618 596
f 596 618 619
f 596 619 597
f 597 619 620
f 597 620 598
f 598 620 621
f 598 621 599
f 599 621 622
f 599 622 600
f 600 622 623
f 600 623 601
f 601 623 624
f 601 624 602
f 602 624 625
f 602 625 603
f 603 625 626
f 603 626 604
f 604 626 627
f 604 627 605
f 605 627 628
f 605 628 606
f 606 628 629
f 606 629 607
f 607 629 630
f 607 630 608
f 608 630 631
f 608 631 609
f 609 631 632
f 609 632 610
f 610 632 633
f 610 633 611
f 611 633 634
f 611 634 612
f 612 634 635
f 612 635 613
f 613 635 636
f 613 636 614
f 614 636 637
f 614 637 615
f 615 637 638
f 615 638 616
f 616 638 617
f 616 617 595
f 617 639 640
f 617 640 618
f 618 640 641
f 618 641 619
f 619 641 642
f 619 642 620
f 620 642 643
f 620 643 621
f 621 643 644
f 621 644 622
f 622 644 645
f 622 645 623
f 623 645 646
f 623 646 624
f 624 646 647
f 624 647 625
f 625 647 648
f 625 648 626
f 626 648 649
f 626 649 627
f 627 649 650
f 627 650 628
f 628 650 651
f 628 651 629
f 629 651 652
f 629 652 630
f 630 652 653
f 630 653 631
f 631 653 654
f 631 654 632
f 632 654 655
f 632 655 633
f 633 655 656
f 633 656 634
f 634 656 657
f 634 657 635
f 635 657 658
f 635 658 636
f 636 658 659
f 636 659 637
f 637 659 660
f 637 660 638
f 638 660 639
f 638 639 617
f 639 661 662
f 639 662 640
f 640 662 663
f 640 663 641
f 641 663 664
f 641 664 642
f 642 664 665
f 642 665 643
f 643 665 666
f 643 666 644
f 644 666 667
f 644 667 645
f 645 667 668
f 645 668 646
f 646 668 669
f 646 669 647
f 647 669 670
f 647 670 648
f 648 670 671
f 648 671 649
f 649 671 672
f 649 672 650
f 650 672 673
f 650 673 651
f 651 673 674
f 651 674 652
f 652 674 675
f 652 675 653
f 653 675 676
f 653 676 654
f 654 676 677
f 654 677 655
f 655 677 678
f 655 678 656
f 656 678 679
f 656 679 657
f 657 679 680
f 657 680 658
f 658 680 681
f 658 681 659
f 659 681 682
f 659 682 660
f 660 682 661
f 660 661 639
f 661 683 684
f 661 684 662
f 662 684 685
f 662 685 663
f 663 685 686
f 663 686 664
f 664 686 687
f 664 687 665
f 665 687 688
f 665 688 666
f 666 688 689
f 666 689 667
f 667 689 690
f 667 690 668
f 668 690 691
f 668 691 669
f 669 691 692
f 669 692 670
f 670 692 693
f 670 693 671
f 671 693 694
f 671 694 672
f 672 694 695
f 672 695 673
f 673 695 696
f 673 696 674
f 674 696 697
f 674 697 675
f 675 697 698
f 675 698 676
f 676 698 699
f 676 699 677
f 677 699 700
f 677 700 678
f 678 700 701
f 678 701 679
f 679 701 702
f 679 702 680
f 680 702 703
f 680 703 681
f 681 703 704
f 681 704 682
f 682 704 683
f 682 683 661
f 683 705 706
f 683 706 684
f 684 706 707
f 684 707 685
f 685 707 708
f 685 708 686
f 686 708 709
f 686 709 687
f 687 709 710
f 687 710 688
f 688 710 711
f 688 711 689
f 689 711 712
f 689 712 690
f 690 712 713
f 690 713 691
f 691 713 714
f 691 714 692
f 692 714 715
f 692 715 693
f 693 715 716
f 693 716 694
f 694 716 717
f 694 717 695
f 695 717 718
f 695 718 696
f 696 718 719
f 696 719 697
f 697 719 720
f 697 720 698
f 698 720 721
f 698 721 699
f 699 721 722
f 699 722 700
f 700 722 723
f 700 723 701
f 701 723 724
f 701 724 702
f 702 724 725
f 702 725 703
f 703 725 726
f 703 726 704
f 704 726 705
f 704 705 683
f 705 727 728
f 705 728 706
f 706 728 729
f 706 729 707
f 707 729 730
f 707 730 708
f 708 730 731
f 708 731 709
f 709 731 732
f 709 732 710
f 710 732 733
f 710 733 711
f 711 733 734
f 711 734 712
f 712 734 735
f 712 735 713
f 713 735 736
f 713 736 714
f 714 736 737
f 714 737 715
f 715 737 738
f 715 738 716
f 716 738 739
f 716 739 717
f 717 739 740
f 717 740 718
f 718 740 741
f 718 741 719
f 719 741 742
f 719 742 720
f 720 742 743
f 720 743 721
f 721 743 744
f 721 744 722
f 722 744 745
f 722 745 723
f 723 745 746
f 723 746 724
f 724 746 747
f 724 747 725
f 725 747 748
f 725 748 726
f 726 748 727
f 726 727 705
f 727 749 750
f 727 750 728
f 728 750 751
f 728 751 729
f 729 751 752
f 729 752 730
f 730 752 753
f 730 753 731
f 731 753 754
f 731 754 732
f 732 754 755
f 732 755 733
f 733 755 756
f 733 756 734
f 734 756 757
f 734 757 735
f 735 757 758
f 735 758 736
f 736 758 759
f 736 759 737
f 737 759 760
f 737 760 738
f 738 760 761
f 738 761 739
f 739 761 762
f 739 762 740
f 740 762 763
f 740 763 741
f 741 763 764
f 741 764 742
f 742 764 765
f 742 765 743
f 743 765 766
f 743 766 744
f 744 766 767
f 744 767 745
f 745 767 768
f 745 768 746
f 746 768 769
f 746 769 747
f 747 769 770
f 747 770 748
f 748 770 749
f 748 749 727
f 749 771 772
f 749 772 750
f 750 772 773
f 750 773 751
f 751 773 774
f 751 774 752
f 752 774 775
f 752 775 753
f 753 775 776
f 753 776 754
f 754 776 777
f 754 777 755
f 755 777 778
f 755 778 756
f 756 778 779
f 756 779 757
f 757 779 780
f 757 780 758
f 758 780 781
f 758 781 759
f 759 781 782
f 759 782 760
f 760 782 783
f 760 783 761
f 761 783 784
f 761 784 762
f 762 784 785
f 762 785 763
f 763 785 786
f 763 786 764
f 764 786 787
f 764 787 765
f 765 787 788
f 765 788 766
f 766 788 789
f 766 789 767
f 767 789 790
f 767 790 768
f 768 790 791
f 768 791 769
f 769 791 792
f 769 792 770
f 770 792 771
f 770 771 749
f 771 793 794
f 771 794 772
f 772 794 795
f 772 795 773
f 773 795 796
f 773 796 774
f 774 796 797
f 774 797 775
f 775 797 798
f 775 798 776
f 776 798 799
f 776 799 777
f 777 799 800
f 777 800 778
f 778 800 801
f 778 801 779
f 779 801 802
f 779 802 780
f 780 802 803
f 780 803 781
f 781 803 804
f 781 804 782
f 782 804 805
f 782 805 783
f 783 805 806
f 783 806 784
f 784 806 807
f 784 807 785
f 785 807 808
f 785 808 786
f 786 808 809
f 786 809 787
f 787 809 810
f 787 810 788
f 788 810 811
f 788 811 789
f 789 811 812
f 789 812 790
f 790 812 813
f 790 813 791
f 791 813 814
f 791 814 792
f 792 814 793
f 792 793 771
f 793 815 816
f 793 816 794
f 794 816 817
f 794 817 795
f 795 817 818
f 795 818 796
f 796 818 819
f 796 819 797
f 797 819 820
f 797 820 798
f 798 820 821
f 798 821 799
f 799 821 822
f 799 822 800
f 800 822 823
f 800 823 801
f 801 823 824
f 801 824 802
f 802 824 825
f 802 825 803
f 803 825 826
f 803 826 804
f 804 826 827
f 804 827 805
f 805 827 828
f 805 828 806
f 806 828 829
f 806 829 807
f 807 829 830
f 807 830 808
f 808 830 831
f 808 831 809
f 809 831 832
f 809 832 810
f 810 832 833
f 810 833 811
f 811 833 834
f 811 834 812
f 812 834 835
f 812 835 813
f 813 835 836
f 813 836 814
f 814 836 815
f 814 815 793
f 815 837 838
f 815 838 816
f 816 838 839
f 816 839 817
f 817 839 840
f 817 840 818
f 818 840 841
f 818 841 819
f 819 841 842
f 819 842 820
f 820 842 843
f 820 843 821
f 821 843 844
f 821 844 822
f 822 844 845
f 822 845 823
f 823 845 846
f 823 846 824
f 824 846 847
f 824 847 825
f 825 847 848
f 825 848 826
f 826 848 849
f 826 849 827
f 827 849 850
f 827 850 828
f 828 850 851
f 828 851 829
f 829 851 852
f 829 852 830
f 830 852 853
f 830 853 831
f 831 853 854
f 831 854 832
f 832 854 855
f 832 855 833
f 833 855 856
f 833 856 834
f 834 856 857
f 834 857 835
f 835 857 858
f 835 858 836
f 836 858 837
f 836 837 815
f 837 859 860
f 837 860 838
f 838 860 861
f 838 861 839
f 839 861 862
f 839 862 840
f 840 862 863
f 840 863 841
f 841 863 864
f 841 864 842
f 842 864 865
f 842 865 843
f 843 865 866
f 843 866 844
f 844 866 867
f 844 867 845
f 845 867 868
f 845 868 846
f 846 868 869
f 846 869 847
f 847 869 870
f 847 870 848
f 848 870 871
f 848 871 849
f 849 871 872
f 849 872 850
f 850 872 873
f 850 873 851
f 851 873 874
f 851 874 852
f 852 874 875
f 852 875 853
f 853 875 876
f 853 876 854
f 854 876 877
f 854 877 855
f 855 877 878
f 855 878 856
f 856 878 879
f 856 879 857
f 857 879 880
f 857 880 858
f 858 880 859
f 858 859 837
f 859 881 882
f 859 882 860
f 860 882 883
f 860 883 861
f 861 883 884
f 861 884 862
f 862 884 885
f 862 885 863
f 863 885 886
f 863 886 864
f 864 886 887
f 864 887 865
f 865 887 888
f 865 888 866
f 866 888 889
f 866 889 867
f 867 889 890
f 867 890 868
f 868 890 891
f 868 891 869
f 869 891 892
f 869 892 870
f 870 892 893
f 870 893 871
f 871 893 894
f 871 894 872
f 872 894 895
f 872 895 873
f 873 895 896
f 873 896 874
f 874 896 897
f 874 897 875
f 875 897 898
f 875 898 876
f 876 898 899
f 876 899 877
f 877 899 900
f 877 900 878
f 878 900 901
f 878 901 879
f 879 901 902
f 879 902 880
f 880 902 881
f 880 881 859
f 881 903 904
f 881 904 882
f 882 904 905
f 882 905 883
f 883 905 906
f 883 906 884
f 884 906 907
f 884 907 885
f 885 907 908
f 885 908 886
f 886 908 909
f 886 909 887
f 887 909 910
f 887 910 888
f 888 910 911
f 888 911 889
f 889 911 912
f 889 912 890
f 890 912 913
f 890 913 891
f 891 913 914
f 891 914 892
f 892 914 915
f 892 915 893
f 893 915 916
f 893 916 894
f 894 916 917
f 894 917 895
f 895 917 918
f 895 918 896
f 896 918 919
f 896 919 897
f 897 919 920
f 897 920 898
f 898 920 921
f 898 921 899
f 899 921 922
f 899 922 900
f 900 922 923
f 900 923 901
f 901 923 924
f 901 924 902
f 902 924 903
f 902 903 881
f 925 2 1
f 926 903 904
f 925 3 2
f 926 904 905
f 925 4 3
f 926 905 906
f 925 5 4
f 926 906 907
f 925 6 5
f 926 907 908
f 925 7 6
f 926 908 909
f 925 8 7
f 926 909 910
f 925 9 8
f 926 910 911
f 925 10 9
f 926 911 912
f 925 11 10
f 926 912 913
f 925 12 11
f 926 913 914
f 925 13 12
f 926 914 915
f 925 14 13
f 926 915 916
f 925 15 14
f 926 916 917
f 925 16 15
f 926 917 918
f 925 17 16
f 926 918 919
f 925 18 17
f 926 919 920
f 925 19 18
f 926 920 921
f 925 20 19
f 926 921 922
f 925 21 20
f 926 922 923
f 925 22 21
f 926 923 924
f 925 1 22
f 926 924 903
